{
 "cells": [
  {
   "cell_type": "code",
   "execution_count": 15,
   "metadata": {},
   "outputs": [
    {
     "name": "stdout",
     "output_type": "stream",
     "text": [
      "MetaMessage('set_tempo', tempo=750000, time=0)\n",
      "MetaMessage('time_signature', numerator=4, denominator=4, clocks_per_click=24, notated_32nd_notes_per_beat=8, time=0)\n",
      "MetaMessage('key_signature', key='C', time=0)\n",
      "program_change channel=9 program=0 time=0\n",
      "program_change channel=9 program=0 time=0\n",
      "note_on channel=9 note=38 velocity=7 time=2.115625\n",
      "note_on channel=9 note=38 velocity=0 time=0.060937500000000006\n",
      "note_on channel=9 note=38 velocity=10 time=0\n",
      "note_on channel=9 note=38 velocity=0 time=0.0390625\n",
      "control_change channel=9 control=4 value=90 time=0.003125\n",
      "control_change channel=9 control=4 value=88 time=0.046875\n",
      "control_change channel=9 control=4 value=86 time=0.046875\n",
      "control_change channel=9 control=4 value=84 time=0.046875\n",
      "control_change channel=9 control=4 value=81 time=0.046875\n",
      "control_change channel=9 control=4 value=79 time=0.046875\n",
      "note_on channel=9 note=38 velocity=56 time=0.0015625\n",
      "control_change channel=9 control=4 value=77 time=0.045312500000000006\n",
      "control_change channel=9 control=4 value=75 time=0.021875000000000002\n",
      "control_change channel=9 control=4 value=46 time=0.0234375\n",
      "note_on channel=9 note=38 velocity=0 time=0.010937500000000001\n",
      "control_change channel=9 control=4 value=17 time=0.0125\n",
      "control_change channel=9 control=4 value=4 time=0.010937500000000001\n",
      "control_change channel=9 control=4 value=34 time=0.0234375\n",
      "note_on channel=9 note=44 velocity=65 time=0.010937500000000001\n",
      "control_change channel=9 control=4 value=64 time=0.0125\n",
      "note_on channel=9 note=38 velocity=48 time=0.0015625\n",
      "control_change channel=9 control=4 value=90 time=0.0171875\n",
      "control_change channel=9 control=4 value=88 time=0.046875\n",
      "note_on channel=9 note=44 velocity=0 time=0.0234375\n",
      "note_on channel=9 note=38 velocity=0 time=0.0125\n",
      "control_change channel=9 control=4 value=85 time=0.010937500000000001\n",
      "control_change channel=9 control=4 value=83 time=0.046875\n",
      "note_on channel=9 note=38 velocity=47 time=0.0390625\n",
      "control_change channel=9 control=4 value=80 time=0.0078125\n",
      "control_change channel=9 control=4 value=77 time=0.046875\n",
      "note_on channel=9 note=38 velocity=0 time=0.045312500000000006\n",
      "control_change channel=9 control=4 value=75 time=0.0015625\n",
      "control_change channel=9 control=4 value=72 time=0.043750000000000004\n",
      "control_change channel=9 control=4 value=66 time=0.0234375\n",
      "note_on channel=9 note=36 velocity=42 time=0.004687500000000001\n",
      "note_on channel=9 note=46 velocity=48 time=0.009375000000000001\n",
      "control_change channel=9 control=4 value=60 time=0.009375000000000001\n",
      "control_change channel=9 control=4 value=56 time=0.015625\n",
      "control_change channel=9 control=4 value=59 time=0.0234375\n",
      "control_change channel=9 control=4 value=63 time=0.0234375\n",
      "control_change channel=9 control=4 value=65 time=0.00625\n",
      "note_on channel=9 note=36 velocity=0 time=0.0125\n",
      "control_change channel=9 control=4 value=70 time=0.010937500000000001\n",
      "note_on channel=9 note=46 velocity=0 time=0\n",
      "control_change channel=9 control=4 value=75 time=0.0234375\n",
      "control_change channel=9 control=4 value=77 time=0.0078125\n",
      "control_change channel=9 control=4 value=82 time=0.0234375\n",
      "control_change channel=9 control=4 value=87 time=0.0234375\n",
      "control_change channel=9 control=4 value=90 time=0.009375000000000001\n",
      "note_on channel=9 note=42 velocity=25 time=0\n",
      "note_on channel=9 note=42 velocity=0 time=0.1015625\n",
      "note_on channel=9 note=36 velocity=44 time=0.07187500000000001\n",
      "control_change channel=9 control=4 value=90 time=0.015625\n",
      "note_on channel=9 note=42 velocity=56 time=0\n",
      "note_on channel=9 note=36 velocity=0 time=0.0859375\n",
      "note_on channel=9 note=42 velocity=0 time=0.015625\n",
      "control_change channel=9 control=4 value=90 time=0.0890625\n",
      "note_on channel=9 note=42 velocity=21 time=0\n",
      "note_on channel=9 note=42 velocity=0 time=0.1015625\n",
      "control_change channel=9 control=4 value=90 time=0.08125\n",
      "note_on channel=9 note=42 velocity=42 time=0\n",
      "note_on channel=9 note=38 velocity=53 time=0.009375000000000001\n",
      "note_on channel=9 note=42 velocity=0 time=0.09062500000000001\n",
      "note_on channel=9 note=38 velocity=0 time=0.010937500000000001\n",
      "control_change channel=9 control=4 value=90 time=0.065625\n",
      "note_on channel=9 note=42 velocity=39 time=0\n",
      "note_on channel=9 note=36 velocity=43 time=0.0234375\n",
      "note_on channel=9 note=42 velocity=0 time=0.078125\n",
      "note_on channel=9 note=36 velocity=0 time=0.021875000000000002\n",
      "control_change channel=9 control=4 value=90 time=0.060937500000000006\n",
      "note_on channel=9 note=42 velocity=47 time=0\n",
      "note_on channel=9 note=42 velocity=0 time=0.1015625\n",
      "control_change channel=9 control=4 value=90 time=0.084375\n",
      "note_on channel=9 note=38 velocity=49 time=0\n",
      "note_on channel=9 note=42 velocity=60 time=0\n",
      "note_on channel=9 note=38 velocity=0 time=0.1\n",
      "note_on channel=9 note=42 velocity=0 time=0\n",
      "control_change channel=9 control=4 value=90 time=0.0734375\n",
      "note_on channel=9 note=42 velocity=44 time=0\n",
      "note_on channel=9 note=42 velocity=0 time=0.1015625\n",
      "control_change channel=9 control=4 value=90 time=0.06875\n",
      "note_on channel=9 note=42 velocity=42 time=0\n",
      "note_on channel=9 note=38 velocity=30 time=0.003125\n",
      "note_on channel=9 note=42 velocity=0 time=0.09843750000000001\n",
      "note_on channel=9 note=38 velocity=0 time=0.003125\n",
      "note_on channel=9 note=36 velocity=31 time=0.051562500000000004\n",
      "control_change channel=9 control=4 value=90 time=0.015625\n",
      "note_on channel=9 note=42 velocity=45 time=0\n",
      "note_on channel=9 note=36 velocity=0 time=0.0859375\n",
      "note_on channel=9 note=42 velocity=0 time=0.015625\n",
      "control_change channel=9 control=4 value=90 time=0.0890625\n",
      "note_on channel=9 note=42 velocity=36 time=0\n",
      "note_on channel=9 note=38 velocity=18 time=0.03125\n",
      "note_on channel=9 note=42 velocity=0 time=0.07187500000000001\n",
      "note_on channel=9 note=38 velocity=0 time=0.028125\n",
      "control_change channel=9 control=4 value=90 time=0.059375000000000004\n",
      "note_on channel=9 note=38 velocity=54 time=0\n",
      "note_on channel=9 note=42 velocity=45 time=0\n",
      "note_on channel=9 note=38 velocity=0 time=0.1015625\n",
      "note_on channel=9 note=42 velocity=0 time=0.0015625\n",
      "note_on channel=9 note=36 velocity=40 time=0.0765625\n",
      "control_change channel=9 control=4 value=90 time=0.026562500000000003\n",
      "note_on channel=9 note=42 velocity=38 time=0\n",
      "note_on channel=9 note=36 velocity=0 time=0.07500000000000001\n",
      "note_on channel=9 note=42 velocity=0 time=0.026562500000000003\n",
      "control_change channel=9 control=4 value=90 time=0.0703125\n",
      "note_on channel=9 note=42 velocity=56 time=0\n",
      "note_on channel=9 note=42 velocity=0 time=0.1015625\n",
      "note_on channel=9 note=38 velocity=54 time=0.0890625\n",
      "control_change channel=9 control=4 value=90 time=0.004687500000000001\n",
      "note_on channel=9 note=42 velocity=61 time=0\n",
      "note_on channel=9 note=38 velocity=0 time=0.09531250000000001\n",
      "note_on channel=9 note=42 velocity=0 time=0.00625\n",
      "control_change channel=9 control=4 value=90 time=0.09375\n",
      "note_on channel=9 note=42 velocity=31 time=0\n",
      "note_on channel=9 note=42 velocity=0 time=0.1015625\n",
      "control_change channel=9 control=4 value=90 time=0.084375\n",
      "note_on channel=9 note=42 velocity=38 time=0\n",
      "note_on channel=9 note=42 velocity=0 time=0.1015625\n",
      "control_change channel=9 control=4 value=90 time=0.0890625\n",
      "note_on channel=9 note=42 velocity=48 time=0\n",
      "note_on channel=9 note=36 velocity=36 time=0.010937500000000001\n",
      "note_on channel=9 note=42 velocity=0 time=0.09062500000000001\n",
      "note_on channel=9 note=36 velocity=0 time=0.010937500000000001\n",
      "control_change channel=9 control=4 value=90 time=0.084375\n",
      "note_on channel=9 note=42 velocity=14 time=0\n",
      "note_on channel=9 note=42 velocity=0 time=0.1\n",
      "note_on channel=9 note=38 velocity=64 time=0.0859375\n",
      "control_change channel=9 control=4 value=90 time=0.0203125\n",
      "note_on channel=9 note=42 velocity=40 time=0\n",
      "note_on channel=9 note=38 velocity=0 time=0.07968750000000001\n",
      "note_on channel=9 note=42 velocity=0 time=0.021875000000000002\n",
      "control_change channel=9 control=4 value=90 time=0.08750000000000001\n",
      "note_on channel=9 note=42 velocity=25 time=0\n",
      "note_on channel=9 note=36 velocity=38 time=0.018750000000000003\n",
      "note_on channel=9 note=42 velocity=0 time=0.084375\n",
      "note_on channel=9 note=36 velocity=0 time=0.0171875\n",
      "control_change channel=9 control=4 value=90 time=0.051562500000000004\n",
      "note_on channel=9 note=42 velocity=47 time=0\n",
      "note_on channel=9 note=42 velocity=0 time=0.1015625\n",
      "note_on channel=9 note=38 velocity=43 time=0.07500000000000001\n",
      "control_change channel=9 control=4 value=90 time=0.004687500000000001\n",
      "note_on channel=9 note=42 velocity=58 time=0\n",
      "note_on channel=9 note=38 velocity=0 time=0.096875\n",
      "note_on channel=9 note=42 velocity=0 time=0.004687500000000001\n",
      "control_change channel=9 control=4 value=90 time=0.09062500000000001\n",
      "note_on channel=9 note=42 velocity=32 time=0\n",
      "note_on channel=9 note=42 velocity=0 time=0.1015625\n",
      "note_on channel=9 note=38 velocity=13 time=0.0671875\n",
      "control_change channel=9 control=4 value=90 time=0.010937500000000001\n",
      "note_on channel=9 note=42 velocity=41 time=0\n",
      "note_on channel=9 note=38 velocity=0 time=0.09062500000000001\n",
      "note_on channel=9 note=42 velocity=0 time=0.010937500000000001\n",
      "note_on channel=9 note=36 velocity=29 time=0.065625\n",
      "control_change channel=9 control=4 value=90 time=0.0203125\n",
      "note_on channel=9 note=42 velocity=46 time=0\n",
      "note_on channel=9 note=36 velocity=0 time=0.07968750000000001\n",
      "note_on channel=9 note=42 velocity=0 time=0.021875000000000002\n",
      "note_on channel=9 note=38 velocity=24 time=0.060937500000000006\n",
      "control_change channel=9 control=4 value=90 time=0.025\n",
      "note_on channel=9 note=42 velocity=27 time=0\n",
      "note_on channel=9 note=38 velocity=0 time=0.07500000000000001\n",
      "note_on channel=9 note=42 velocity=0 time=0.026562500000000003\n",
      "note_on channel=9 note=38 velocity=48 time=0.060937500000000006\n",
      "control_change channel=9 control=4 value=90 time=0.0140625\n",
      "note_on channel=9 note=42 velocity=40 time=0\n",
      "control_change channel=9 control=4 value=86 time=0.046875\n",
      "note_on channel=9 note=38 velocity=0 time=0.040625\n",
      "control_change channel=9 control=4 value=82 time=0.00625\n",
      "note_on channel=9 note=42 velocity=0 time=0.0078125\n",
      "control_change channel=9 control=4 value=77 time=0.0390625\n",
      "control_change channel=9 control=4 value=73 time=0.0390625\n",
      "control_change channel=9 control=4 value=60 time=0.0234375\n",
      "note_on channel=9 note=46 velocity=55 time=0\n",
      "note_on channel=9 note=36 velocity=35 time=0.0015625\n",
      "control_change channel=9 control=4 value=47 time=0.021875000000000002\n",
      "control_change channel=9 control=4 value=42 time=0.00625\n",
      "control_change channel=9 control=4 value=23 time=0.0234375\n",
      "control_change channel=9 control=4 value=4 time=0.0234375\n",
      "control_change channel=9 control=4 value=0 time=0.004687500000000001\n",
      "note_on channel=9 note=46 velocity=0 time=0.018750000000000003\n",
      "note_on channel=9 note=36 velocity=0 time=0.003125\n",
      "control_change channel=9 control=4 value=17 time=0.0015625\n",
      "control_change channel=9 control=4 value=35 time=0.0234375\n",
      "control_change channel=9 control=4 value=53 time=0.0234375\n",
      "note_on channel=9 note=44 velocity=67 time=0.0171875\n",
      "control_change channel=9 control=4 value=71 time=0.00625\n",
      "control_change channel=9 control=4 value=88 time=0.0234375\n",
      "note_on channel=9 note=42 velocity=38 time=0\n",
      "control_change channel=9 control=4 value=90 time=0.0015625\n",
      "note_on channel=9 note=44 velocity=0 time=0.0703125\n",
      "note_on channel=9 note=42 velocity=0 time=0.029687500000000002\n",
      "control_change channel=9 control=4 value=90 time=0.078125\n",
      "note_on channel=9 note=38 velocity=51 time=0\n",
      "note_on channel=9 note=42 velocity=55 time=0\n",
      "note_on channel=9 note=38 velocity=0 time=0.1015625\n",
      "note_on channel=9 note=42 velocity=0 time=0\n",
      "control_change channel=9 control=4 value=90 time=0.09062500000000001\n",
      "note_on channel=9 note=42 velocity=23 time=0\n",
      "note_on channel=9 note=42 velocity=0 time=0.1015625\n",
      "control_change channel=9 control=4 value=90 time=0.0703125\n",
      "note_on channel=9 note=42 velocity=26 time=0\n",
      "note_on channel=9 note=38 velocity=16 time=0.0203125\n",
      "note_on channel=9 note=42 velocity=0 time=0.08125\n",
      "note_on channel=9 note=38 velocity=0 time=0.018750000000000003\n",
      "control_change channel=9 control=4 value=90 time=0.06875\n",
      "note_on channel=9 note=42 velocity=47 time=0\n",
      "note_on channel=9 note=36 velocity=34 time=0.003125\n",
      "note_on channel=9 note=42 velocity=0 time=0.09843750000000001\n",
      "note_on channel=9 note=36 velocity=0 time=0.003125\n",
      "control_change channel=9 control=4 value=90 time=0.08125\n",
      "note_on channel=9 note=42 velocity=25 time=0\n",
      "note_on channel=9 note=42 velocity=0 time=0.1015625\n",
      "note_on channel=9 note=37 velocity=64 time=0.08125\n",
      "control_change channel=9 control=4 value=90 time=0.0125\n",
      "note_on channel=9 note=42 velocity=22 time=0\n",
      "note_on channel=9 note=37 velocity=0 time=0.08750000000000001\n",
      "note_on channel=9 note=42 velocity=0 time=0.0140625\n",
      "control_change channel=9 control=4 value=90 time=0.09062500000000001\n",
      "note_on channel=9 note=42 velocity=26 time=0\n",
      "note_on channel=9 note=36 velocity=37 time=0.0234375\n",
      "note_on channel=9 note=42 velocity=0 time=0.078125\n",
      "note_on channel=9 note=36 velocity=0 time=0.021875000000000002\n",
      "control_change channel=9 control=4 value=90 time=0.051562500000000004\n",
      "note_on channel=9 note=42 velocity=51 time=0\n",
      "note_on channel=9 note=42 velocity=0 time=0.1015625\n",
      "note_on channel=9 note=38 velocity=29 time=0.09062500000000001\n",
      "control_change channel=9 control=4 value=90 time=0.0015625\n",
      "note_on channel=9 note=42 velocity=47 time=0\n",
      "note_on channel=9 note=38 velocity=0 time=0.09843750000000001\n",
      "note_on channel=9 note=42 velocity=0 time=0.003125\n",
      "control_change channel=9 control=4 value=90 time=0.0921875\n",
      "note_on channel=9 note=42 velocity=42 time=0\n",
      "note_on channel=9 note=42 velocity=0 time=0.1015625\n",
      "note_on channel=9 note=38 velocity=21 time=0.08281250000000001\n",
      "control_change channel=9 control=4 value=90 time=0.0078125\n",
      "note_on channel=9 note=42 velocity=41 time=0\n",
      "note_on channel=9 note=38 velocity=0 time=0.09375\n",
      "note_on channel=9 note=42 velocity=0 time=0.0078125\n",
      "note_on channel=9 note=36 velocity=36 time=0.0546875\n",
      "control_change channel=9 control=4 value=90 time=0.025\n",
      "note_on channel=9 note=42 velocity=36 time=0\n",
      "note_on channel=9 note=36 velocity=0 time=0.0765625\n",
      "note_on channel=9 note=42 velocity=0 time=0.025\n",
      "note_on channel=9 note=38 velocity=15 time=0.0671875\n",
      "control_change channel=9 control=4 value=90 time=0.026562500000000003\n",
      "note_on channel=9 note=42 velocity=25 time=0\n",
      "note_on channel=9 note=38 velocity=0 time=0.07500000000000001\n",
      "note_on channel=9 note=42 velocity=0 time=0.026562500000000003\n",
      "note_on channel=9 note=38 velocity=67 time=0.06875\n",
      "control_change channel=9 control=4 value=90 time=0.0140625\n",
      "note_on channel=9 note=42 velocity=39 time=0\n",
      "note_on channel=9 note=38 velocity=0 time=0.08750000000000001\n",
      "note_on channel=9 note=42 velocity=0 time=0.0140625\n",
      "note_on channel=9 note=36 velocity=40 time=0.08281250000000001\n",
      "control_change channel=9 control=4 value=90 time=0.009375000000000001\n",
      "note_on channel=9 note=42 velocity=29 time=0\n",
      "note_on channel=9 note=36 velocity=0 time=0.0921875\n",
      "note_on channel=9 note=42 velocity=0 time=0.009375000000000001\n",
      "control_change channel=9 control=4 value=90 time=0.05625\n",
      "note_on channel=9 note=42 velocity=46 time=0\n",
      "note_on channel=9 note=42 velocity=0 time=0.1015625\n",
      "note_on channel=9 note=38 velocity=30 time=0.08125\n",
      "control_change channel=9 control=4 value=90 time=0.015625\n",
      "note_on channel=9 note=42 velocity=48 time=0\n",
      "note_on channel=9 note=38 velocity=0 time=0.0859375\n",
      "note_on channel=9 note=42 velocity=0 time=0.015625\n",
      "control_change channel=9 control=4 value=90 time=0.0890625\n",
      "note_on channel=9 note=42 velocity=43 time=0\n",
      "note_on channel=9 note=42 velocity=0 time=0.1015625\n",
      "control_change channel=9 control=4 value=90 time=0.09062500000000001\n",
      "note_on channel=9 note=42 velocity=43 time=0\n",
      "note_on channel=9 note=38 velocity=10 time=0.026562500000000003\n",
      "note_on channel=9 note=42 velocity=0 time=0.07500000000000001\n",
      "note_on channel=9 note=38 velocity=0 time=0.026562500000000003\n",
      "control_change channel=9 control=4 value=90 time=0.05\n",
      "note_on channel=9 note=36 velocity=42 time=0\n",
      "note_on channel=9 note=42 velocity=48 time=0\n",
      "note_on channel=9 note=36 velocity=0 time=0.1\n",
      "note_on channel=9 note=42 velocity=0 time=0\n",
      "control_change channel=9 control=4 value=90 time=0.08281250000000001\n",
      "note_on channel=9 note=42 velocity=29 time=0\n",
      "note_on channel=9 note=42 velocity=0 time=0.1015625\n",
      "note_on channel=9 note=38 velocity=69 time=0.084375\n",
      "control_change channel=9 control=4 value=90 time=0.0125\n",
      "note_on channel=9 note=42 velocity=49 time=0\n",
      "note_on channel=9 note=38 velocity=0 time=0.0890625\n",
      "note_on channel=9 note=42 velocity=0 time=0.0125\n",
      "control_change channel=9 control=4 value=90 time=0.0859375\n",
      "note_on channel=9 note=36 velocity=44 time=0\n",
      "note_on channel=9 note=42 velocity=29 time=0\n",
      "note_on channel=9 note=36 velocity=0 time=0.1015625\n",
      "note_on channel=9 note=42 velocity=0 time=0\n",
      "control_change channel=9 control=4 value=90 time=0.084375\n",
      "note_on channel=9 note=42 velocity=28 time=0\n",
      "note_on channel=9 note=42 velocity=0 time=0.1015625\n",
      "control_change channel=9 control=4 value=90 time=0.0859375\n",
      "note_on channel=9 note=42 velocity=41 time=0\n",
      "note_on channel=9 note=38 velocity=57 time=0.00625\n",
      "note_on channel=9 note=42 velocity=0 time=0.09531250000000001\n",
      "note_on channel=9 note=38 velocity=0 time=0.00625\n",
      "control_change channel=9 control=4 value=90 time=0.0703125\n",
      "note_on channel=9 note=42 velocity=36 time=0\n",
      "note_on channel=9 note=42 velocity=0 time=0.1015625\n",
      "control_change channel=9 control=4 value=90 time=0.0859375\n",
      "note_on channel=9 note=42 velocity=48 time=0\n",
      "note_on channel=9 note=38 velocity=15 time=0.0203125\n",
      "note_on channel=9 note=42 velocity=0 time=0.08281250000000001\n",
      "note_on channel=9 note=38 velocity=0 time=0.0171875\n",
      "control_change channel=9 control=4 value=90 time=0.07187500000000001\n",
      "note_on channel=9 note=42 velocity=43 time=0\n",
      "note_on channel=9 note=38 velocity=34 time=0.0015625\n",
      "note_on channel=9 note=42 velocity=0 time=0.09843750000000001\n",
      "note_on channel=9 note=38 velocity=0 time=0.0015625\n",
      "control_change channel=9 control=4 value=90 time=0.07500000000000001\n",
      "note_on channel=9 note=42 velocity=31 time=0\n",
      "note_on channel=9 note=38 velocity=33 time=0.003125\n",
      "note_on channel=9 note=42 velocity=0 time=0.09843750000000001\n",
      "note_on channel=9 note=38 velocity=0 time=0.0015625\n",
      "control_change channel=9 control=4 value=90 time=0.0890625\n",
      "note_on channel=9 note=37 velocity=71 time=0\n",
      "note_on channel=9 note=42 velocity=42 time=0\n",
      "note_on channel=9 note=38 velocity=43 time=0.040625\n",
      "note_on channel=9 note=37 velocity=0 time=0.060937500000000006\n",
      "note_on channel=9 note=42 velocity=0 time=0\n",
      "note_on channel=9 note=38 velocity=0 time=0.040625\n",
      "note_on channel=9 note=36 velocity=41 time=0.046875\n",
      "control_change channel=9 control=4 value=90 time=0.010937500000000001\n",
      "note_on channel=9 note=42 velocity=32 time=0\n",
      "note_on channel=9 note=36 velocity=0 time=0.0890625\n",
      "note_on channel=9 note=42 velocity=0 time=0.0140625\n",
      "control_change channel=9 control=4 value=90 time=0.0765625\n",
      "note_on channel=9 note=42 velocity=48 time=0\n",
      "note_on channel=9 note=42 velocity=0 time=0.1015625\n",
      "control_change channel=9 control=4 value=90 time=0.0859375\n",
      "note_on channel=9 note=42 velocity=32 time=0\n",
      "note_on channel=9 note=36 velocity=23 time=0.0078125\n",
      "control_change channel=9 control=4 value=87 time=0.0390625\n",
      "control_change channel=9 control=4 value=83 time=0.046875\n",
      "note_on channel=9 note=42 velocity=0 time=0.009375000000000001\n",
      "note_on channel=9 note=36 velocity=0 time=0.004687500000000001\n",
      "control_change channel=9 control=4 value=80 time=0.0328125\n",
      "control_change channel=9 control=4 value=78 time=0.018750000000000003\n",
      "control_change channel=9 control=4 value=62 time=0.0234375\n",
      "note_on channel=9 note=36 velocity=56 time=0.004687500000000001\n",
      "note_on channel=9 note=26 velocity=66 time=0.009375000000000001\n",
      "control_change channel=9 control=4 value=45 time=0.009375000000000001\n",
      "control_change channel=9 control=4 value=40 time=0.00625\n",
      "control_change channel=9 control=4 value=33 time=0.0234375\n",
      "control_change channel=9 control=4 value=26 time=0.0234375\n",
      "control_change channel=9 control=4 value=21 time=0.0125\n",
      "note_on channel=9 note=36 velocity=0 time=0.0171875\n",
      "note_on channel=9 note=26 velocity=0 time=0.0078125\n",
      "control_change channel=9 control=4 value=17 time=0.021875000000000002\n",
      "control_change channel=9 control=4 value=13 time=0.046875\n",
      "control_change channel=9 control=4 value=11 time=0.0125\n",
      "control_change channel=9 control=4 value=12 time=0.046875\n",
      "control_change channel=9 control=4 value=14 time=0.046875\n",
      "control_change channel=9 control=4 value=16 time=0.046875\n",
      "control_change channel=9 control=4 value=18 time=0.026562500000000003\n",
      "note_on channel=9 note=44 velocity=45 time=0.018750000000000003\n",
      "control_change channel=9 control=4 value=50 time=0.004687500000000001\n",
      "note_on channel=9 note=42 velocity=30 time=0.0125\n",
      "control_change channel=9 control=4 value=83 time=0.010937500000000001\n",
      "control_change channel=9 control=4 value=90 time=0.004687500000000001\n",
      "note_on channel=9 note=44 velocity=0 time=0.06875\n",
      "note_on channel=9 note=42 velocity=0 time=0.0171875\n",
      "control_change channel=9 control=4 value=90 time=0.07500000000000001\n",
      "note_on channel=9 note=42 velocity=24 time=0\n",
      "note_on channel=9 note=42 velocity=0 time=0.1015625\n",
      "note_on channel=9 note=38 velocity=77 time=0.07968750000000001\n",
      "control_change channel=9 control=4 value=90 time=0.018750000000000003\n",
      "note_on channel=9 note=42 velocity=41 time=0\n",
      "note_on channel=9 note=38 velocity=0 time=0.08125\n",
      "note_on channel=9 note=42 velocity=0 time=0.0203125\n",
      "note_on channel=9 note=36 velocity=49 time=0.078125\n",
      "control_change channel=9 control=4 value=90 time=0.015625\n",
      "note_on channel=9 note=42 velocity=23 time=0\n",
      "note_on channel=9 note=36 velocity=0 time=0.0859375\n",
      "note_on channel=9 note=42 velocity=0 time=0.015625\n",
      "control_change channel=9 control=4 value=90 time=0.0765625\n",
      "note_on channel=9 note=42 velocity=46 time=0\n",
      "note_on channel=9 note=42 velocity=0 time=0.1015625\n",
      "note_on channel=9 note=38 velocity=57 time=0.0703125\n",
      "control_change channel=9 control=4 value=90 time=0.004687500000000001\n",
      "note_on channel=9 note=42 velocity=32 time=0\n",
      "note_on channel=9 note=38 velocity=0 time=0.09531250000000001\n",
      "note_on channel=9 note=42 velocity=0 time=0.00625\n",
      "control_change channel=9 control=4 value=90 time=0.0859375\n",
      "note_on channel=9 note=42 velocity=18 time=0\n",
      "note_on channel=9 note=42 velocity=0 time=0.1015625\n",
      "control_change channel=9 control=4 value=90 time=0.0703125\n",
      "note_on channel=9 note=42 velocity=20 time=0\n",
      "note_on channel=9 note=42 velocity=0 time=0.1015625\n",
      "note_on channel=9 note=36 velocity=37 time=0.078125\n",
      "control_change channel=9 control=4 value=90 time=0.003125\n",
      "note_on channel=9 note=42 velocity=57 time=0\n",
      "note_on channel=9 note=36 velocity=0 time=0.09843750000000001\n",
      "note_on channel=9 note=42 velocity=0 time=0.003125\n",
      "control_change channel=9 control=4 value=90 time=0.084375\n",
      "note_on channel=9 note=42 velocity=24 time=0\n",
      "note_on channel=9 note=42 velocity=0 time=0.1015625\n",
      "control_change channel=9 control=4 value=90 time=0.0859375\n",
      "note_on channel=9 note=42 velocity=57 time=0\n",
      "note_on channel=9 note=38 velocity=62 time=0.0078125\n",
      "note_on channel=9 note=42 velocity=0 time=0.09375\n",
      "note_on channel=9 note=38 velocity=0 time=0.0078125\n",
      "control_change channel=9 control=4 value=90 time=0.0859375\n",
      "note_on channel=9 note=42 velocity=37 time=0\n",
      "note_on channel=9 note=36 velocity=44 time=0.0125\n",
      "note_on channel=9 note=42 velocity=0 time=0.0890625\n",
      "note_on channel=9 note=36 velocity=0 time=0.0125\n",
      "control_change channel=9 control=4 value=90 time=0.0765625\n",
      "note_on channel=9 note=42 velocity=48 time=0\n",
      "note_on channel=9 note=42 velocity=0 time=0.1015625\n",
      "note_on channel=9 note=38 velocity=62 time=0.08125\n",
      "control_change channel=9 control=4 value=90 time=0.0125\n",
      "note_on channel=9 note=42 velocity=38 time=0\n",
      "note_on channel=9 note=38 velocity=0 time=0.08750000000000001\n",
      "note_on channel=9 note=42 velocity=0 time=0.0140625\n",
      "control_change channel=9 control=4 value=90 time=0.08281250000000001\n",
      "note_on channel=9 note=42 velocity=31 time=0\n",
      "note_on channel=9 note=42 velocity=0 time=0.1015625\n",
      "control_change channel=9 control=4 value=90 time=0.0625\n",
      "note_on channel=9 note=42 velocity=25 time=0\n",
      "note_on channel=9 note=42 velocity=0 time=0.1015625\n",
      "control_change channel=9 control=4 value=90 time=0.09531250000000001\n",
      "note_on channel=9 note=42 velocity=57 time=0\n",
      "note_on channel=9 note=36 velocity=34 time=0.0140625\n",
      "note_on channel=9 note=42 velocity=0 time=0.08750000000000001\n",
      "note_on channel=9 note=36 velocity=0 time=0.0140625\n",
      "control_change channel=9 control=4 value=90 time=0.0734375\n",
      "note_on channel=9 note=42 velocity=22 time=0\n",
      "note_on channel=9 note=42 velocity=0 time=0.1015625\n",
      "control_change channel=9 control=4 value=90 time=0.084375\n",
      "note_on channel=9 note=42 velocity=61 time=0\n",
      "note_on channel=9 note=38 velocity=55 time=0.004687500000000001\n",
      "note_on channel=9 note=42 velocity=0 time=0.096875\n",
      "note_on channel=9 note=38 velocity=0 time=0.004687500000000001\n",
      "control_change channel=9 control=4 value=90 time=0.0890625\n",
      "note_on channel=9 note=42 velocity=37 time=0\n",
      "note_on channel=9 note=36 velocity=33 time=0.0078125\n",
      "note_on channel=9 note=42 velocity=0 time=0.09375\n",
      "note_on channel=9 note=36 velocity=0 time=0.0078125\n",
      "control_change channel=9 control=4 value=90 time=0.07500000000000001\n",
      "note_on channel=9 note=42 velocity=58 time=0\n",
      "note_on channel=9 note=42 velocity=0 time=0.1015625\n",
      "note_on channel=9 note=38 velocity=64 time=0.08281250000000001\n",
      "control_change channel=9 control=4 value=90 time=0.015625\n",
      "note_on channel=9 note=42 velocity=51 time=0\n",
      "note_on channel=9 note=38 velocity=0 time=0.0859375\n",
      "note_on channel=9 note=42 velocity=0 time=0.015625\n",
      "control_change channel=9 control=4 value=90 time=0.0765625\n",
      "note_on channel=9 note=42 velocity=49 time=0\n",
      "note_on channel=9 note=42 velocity=0 time=0.1015625\n",
      "control_change channel=9 control=4 value=90 time=0.078125\n",
      "note_on channel=9 note=42 velocity=36 time=0\n",
      "note_on channel=9 note=42 velocity=0 time=0.1\n",
      "control_change channel=9 control=4 value=90 time=0.09062500000000001\n",
      "note_on channel=9 note=42 velocity=62 time=0\n",
      "note_on channel=9 note=36 velocity=27 time=0.010937500000000001\n",
      "note_on channel=9 note=42 velocity=0 time=0.09062500000000001\n",
      "note_on channel=9 note=36 velocity=0 time=0.010937500000000001\n",
      "control_change channel=9 control=4 value=90 time=0.08125\n",
      "note_on channel=9 note=42 velocity=44 time=0\n",
      "note_on channel=9 note=42 velocity=0 time=0.1015625\n",
      "note_on channel=9 note=38 velocity=54 time=0.0859375\n",
      "control_change channel=9 control=4 value=90 time=0.003125\n",
      "note_on channel=9 note=42 velocity=49 time=0\n",
      "control_change channel=9 control=4 value=86 time=0.0234375\n",
      "control_change channel=9 control=4 value=82 time=0.0234375\n",
      "control_change channel=9 control=4 value=77 time=0.0234375\n",
      "control_change channel=9 control=4 value=73 time=0.0234375\n",
      "note_on channel=9 note=38 velocity=0 time=0.004687500000000001\n",
      "note_on channel=9 note=42 velocity=0 time=0.003125\n",
      "control_change channel=9 control=4 value=68 time=0.015625\n",
      "control_change channel=9 control=4 value=64 time=0.0234375\n",
      "control_change channel=9 control=4 value=60 time=0.0234375\n",
      "control_change channel=9 control=4 value=55 time=0.0234375\n",
      "note_on channel=9 note=36 velocity=36 time=0.0078125\n",
      "note_on channel=9 note=46 velocity=44 time=0.010937500000000001\n",
      "control_change channel=9 control=4 value=51 time=0.004687500000000001\n",
      "control_change channel=9 control=4 value=49 time=0.0078125\n",
      "control_change channel=9 control=4 value=25 time=0.0234375\n",
      "control_change channel=9 control=4 value=0 time=0.0234375\n",
      "control_change channel=9 control=4 value=1 time=0\n",
      "control_change channel=9 control=4 value=16 time=0.0234375\n",
      "note_on channel=9 note=36 velocity=0 time=0.00625\n",
      "note_on channel=9 note=46 velocity=0 time=0.010937500000000001\n",
      "control_change channel=9 control=4 value=32 time=0.00625\n",
      "control_change channel=9 control=4 value=48 time=0.0234375\n",
      "control_change channel=9 control=4 value=65 time=0.0234375\n",
      "note_on channel=9 note=44 velocity=75 time=0.004687500000000001\n",
      "control_change channel=9 control=4 value=81 time=0.018750000000000003\n",
      "note_on channel=9 note=42 velocity=44 time=0.00625\n",
      "control_change channel=9 control=4 value=90 time=0.00625\n",
      "note_on channel=9 note=44 velocity=0 time=0.06875\n",
      "note_on channel=9 note=42 velocity=0 time=0.025\n",
      "control_change channel=9 control=4 value=90 time=0.084375\n",
      "note_on channel=9 note=42 velocity=52 time=0\n",
      "note_on channel=9 note=38 velocity=64 time=0.003125\n",
      "note_on channel=9 note=42 velocity=0 time=0.09843750000000001\n",
      "note_on channel=9 note=38 velocity=0 time=0.0015625\n",
      "note_on channel=9 note=36 velocity=28 time=0.06875\n",
      "control_change channel=9 control=4 value=90 time=0.0171875\n",
      "note_on channel=9 note=42 velocity=49 time=0\n",
      "note_on channel=9 note=36 velocity=0 time=0.08281250000000001\n",
      "note_on channel=9 note=42 velocity=0 time=0.018750000000000003\n",
      "control_change channel=9 control=4 value=90 time=0.06875\n",
      "note_on channel=9 note=42 velocity=45 time=0\n",
      "note_on channel=9 note=38 velocity=8 time=0.0703125\n",
      "note_on channel=9 note=42 velocity=0 time=0.03125\n",
      "note_on channel=9 note=38 velocity=0 time=0.0703125\n",
      "note_on channel=9 note=36 velocity=38 time=0.021875000000000002\n",
      "control_change channel=9 control=4 value=90 time=0.003125\n",
      "note_on channel=9 note=42 velocity=49 time=0\n",
      "note_on channel=9 note=36 velocity=0 time=0.09843750000000001\n",
      "note_on channel=9 note=42 velocity=0 time=0.003125\n",
      "control_change channel=9 control=4 value=90 time=0.0703125\n",
      "note_on channel=9 note=42 velocity=35 time=0\n",
      "note_on channel=9 note=42 velocity=0 time=0.1015625\n",
      "note_on channel=9 note=37 velocity=67 time=0.1\n",
      "control_change channel=9 control=4 value=90 time=0.00625\n",
      "note_on channel=9 note=42 velocity=55 time=0\n",
      "note_on channel=9 note=37 velocity=0 time=0.09375\n",
      "note_on channel=9 note=42 velocity=0 time=0.0078125\n",
      "control_change channel=9 control=4 value=90 time=0.0890625\n",
      "note_on channel=9 note=36 velocity=36 time=0\n",
      "note_on channel=9 note=42 velocity=36 time=0\n",
      "note_on channel=9 note=36 velocity=0 time=0.1015625\n",
      "note_on channel=9 note=42 velocity=0 time=0\n",
      "control_change channel=9 control=4 value=90 time=0.0921875\n",
      "note_on channel=9 note=42 velocity=60 time=0\n",
      "note_on channel=9 note=42 velocity=0 time=0.1015625\n",
      "note_on channel=9 note=38 velocity=33 time=0.0734375\n",
      "control_change channel=9 control=4 value=90 time=0.010937500000000001\n",
      "note_on channel=9 note=42 velocity=39 time=0\n",
      "note_on channel=9 note=38 velocity=0 time=0.0890625\n",
      "note_on channel=9 note=42 velocity=0 time=0.0125\n",
      "control_change channel=9 control=4 value=90 time=0.078125\n",
      "note_on channel=9 note=42 velocity=58 time=0\n",
      "note_on channel=9 note=42 velocity=0 time=0.1015625\n",
      "note_on channel=9 note=38 velocity=21 time=0.065625\n",
      "control_change channel=9 control=4 value=90 time=0.0203125\n",
      "note_on channel=9 note=42 velocity=36 time=0\n",
      "note_on channel=9 note=38 velocity=0 time=0.08125\n",
      "note_on channel=9 note=42 velocity=0 time=0.0203125\n",
      "note_on channel=9 note=36 velocity=32 time=0.0546875\n",
      "control_change channel=9 control=4 value=90 time=0.028125\n",
      "note_on channel=9 note=42 velocity=39 time=0\n",
      "note_on channel=9 note=36 velocity=0 time=0.0734375\n",
      "note_on channel=9 note=42 velocity=0 time=0.026562500000000003\n",
      "note_on channel=9 note=38 velocity=11 time=0.0671875\n",
      "control_change channel=9 control=4 value=90 time=0.021875000000000002\n",
      "note_on channel=9 note=42 velocity=29 time=0\n",
      "note_on channel=9 note=38 velocity=0 time=0.07968750000000001\n",
      "note_on channel=9 note=42 velocity=0 time=0.021875000000000002\n",
      "note_on channel=9 note=37 velocity=62 time=0.0734375\n",
      "control_change channel=9 control=4 value=90 time=0.0078125\n",
      "note_on channel=9 note=42 velocity=41 time=0\n",
      "control_change channel=9 control=4 value=87 time=0.046875\n",
      "note_on channel=9 note=37 velocity=0 time=0.045312500000000006\n",
      "control_change channel=9 control=4 value=84 time=0.0015625\n",
      "note_on channel=9 note=42 velocity=0 time=0.0078125\n",
      "control_change channel=9 control=4 value=82 time=0.015625\n",
      "control_change channel=9 control=4 value=65 time=0.0234375\n",
      "control_change channel=9 control=4 value=48 time=0.0234375\n",
      "note_on channel=9 note=36 velocity=36 time=0.0078125\n",
      "control_change channel=9 control=4 value=26 time=0.015625\n",
      "note_on channel=9 note=46 velocity=51 time=0.0171875\n",
      "control_change channel=9 control=4 value=4 time=0.00625\n",
      "control_change channel=9 control=4 value=0 time=0.004687500000000001\n",
      "control_change channel=9 control=4 value=16 time=0.0234375\n",
      "control_change channel=9 control=4 value=33 time=0.0234375\n",
      "note_on channel=9 note=36 velocity=0 time=0.009375000000000001\n",
      "control_change channel=9 control=4 value=50 time=0.0140625\n",
      "note_on channel=9 note=46 velocity=0 time=0.018750000000000003\n",
      "control_change channel=9 control=4 value=66 time=0.004687500000000001\n",
      "control_change channel=9 control=4 value=83 time=0.0234375\n",
      "note_on channel=9 note=44 velocity=65 time=0.003125\n",
      "control_change channel=9 control=4 value=90 time=0.00625\n",
      "control_change channel=9 control=4 value=90 time=0.0484375\n",
      "note_on channel=9 note=42 velocity=38 time=0\n",
      "note_on channel=9 note=44 velocity=0 time=0.045312500000000006\n",
      "note_on channel=9 note=42 velocity=0 time=0.05625\n",
      "note_on channel=9 note=38 velocity=24 time=0.060937500000000006\n",
      "control_change channel=9 control=4 value=90 time=0.009375000000000001\n",
      "note_on channel=9 note=42 velocity=43 time=0\n",
      "note_on channel=9 note=38 velocity=0 time=0.09062500000000001\n",
      "note_on channel=9 note=42 velocity=0 time=0.010937500000000001\n",
      "note_on channel=9 note=36 velocity=33 time=0.05625\n",
      "control_change channel=9 control=4 value=90 time=0.021875000000000002\n",
      "note_on channel=9 note=42 velocity=38 time=0\n",
      "note_on channel=9 note=36 velocity=0 time=0.07968750000000001\n",
      "note_on channel=9 note=42 velocity=0 time=0.021875000000000002\n",
      "note_on channel=9 note=38 velocity=7 time=0.059375000000000004\n",
      "control_change channel=9 control=4 value=90 time=0.015625\n",
      "note_on channel=9 note=42 velocity=34 time=0\n",
      "note_on channel=9 note=38 velocity=0 time=0.084375\n",
      "note_on channel=9 note=42 velocity=0 time=0.0171875\n",
      "note_on channel=9 note=36 velocity=38 time=0.07968750000000001\n",
      "control_change channel=9 control=4 value=90 time=0.0078125\n",
      "note_on channel=9 note=42 velocity=51 time=0\n",
      "note_on channel=9 note=36 velocity=0 time=0.09375\n",
      "note_on channel=9 note=42 velocity=0 time=0.0078125\n",
      "note_on channel=9 note=38 velocity=12 time=0.09375\n",
      "control_change channel=9 control=4 value=90 time=0.003125\n",
      "note_on channel=9 note=42 velocity=29 time=0\n",
      "note_on channel=9 note=38 velocity=0 time=0.09843750000000001\n",
      "note_on channel=9 note=42 velocity=0 time=0.003125\n",
      "note_on channel=9 note=38 velocity=13 time=0.08125\n",
      "control_change channel=9 control=4 value=90 time=0.0140625\n",
      "note_on channel=9 note=42 velocity=27 time=0\n",
      "note_on channel=9 note=38 velocity=0 time=0.08750000000000001\n",
      "note_on channel=9 note=42 velocity=0 time=0.015625\n",
      "control_change channel=9 control=4 value=90 time=0.07187500000000001\n",
      "note_on channel=9 note=42 velocity=29 time=0\n",
      "note_on channel=9 note=38 velocity=21 time=0.0140625\n",
      "note_on channel=9 note=42 velocity=0 time=0.08750000000000001\n",
      "note_on channel=9 note=38 velocity=0 time=0.0125\n",
      "control_change channel=9 control=4 value=90 time=0.078125\n",
      "note_on channel=9 note=42 velocity=49 time=0\n",
      "note_on channel=9 note=38 velocity=29 time=0.00625\n",
      "note_on channel=9 note=42 velocity=0 time=0.09531250000000001\n",
      "note_on channel=9 note=38 velocity=0 time=0.00625\n",
      "control_change channel=9 control=4 value=90 time=0.08125\n",
      "note_on channel=9 note=42 velocity=25 time=0\n",
      "note_on channel=9 note=38 velocity=18 time=0.0078125\n",
      "note_on channel=9 note=42 velocity=0 time=0.09375\n",
      "note_on channel=9 note=38 velocity=0 time=0.00625\n",
      "note_on channel=9 note=38 velocity=61 time=0.0734375\n",
      "control_change channel=9 control=4 value=90 time=0.0015625\n",
      "note_on channel=9 note=42 velocity=54 time=0\n",
      "note_on channel=9 note=38 velocity=0 time=0.1\n",
      "note_on channel=9 note=42 velocity=0 time=0.003125\n",
      "control_change channel=9 control=4 value=90 time=0.0703125\n",
      "note_on channel=9 note=42 velocity=23 time=0\n",
      "note_on channel=9 note=42 velocity=0 time=0.1015625\n",
      "note_on channel=9 note=36 velocity=42 time=0.09531250000000001\n",
      "control_change channel=9 control=4 value=90 time=0.0078125\n",
      "note_on channel=9 note=42 velocity=49 time=0\n",
      "note_on channel=9 note=36 velocity=0 time=0.0921875\n",
      "note_on channel=9 note=42 velocity=0 time=0.009375000000000001\n",
      "control_change channel=9 control=4 value=90 time=0.07500000000000001\n",
      "note_on channel=9 note=42 velocity=28 time=0\n",
      "note_on channel=9 note=42 velocity=0 time=0.1015625\n",
      "note_on channel=9 note=38 velocity=62 time=0.09843750000000001\n",
      "control_change channel=9 control=4 value=90 time=0.0171875\n",
      "note_on channel=9 note=42 velocity=43 time=0\n",
      "note_on channel=9 note=38 velocity=0 time=0.084375\n",
      "note_on channel=9 note=42 velocity=0 time=0.0171875\n",
      "note_on channel=9 note=36 velocity=44 time=0.07187500000000001\n",
      "control_change channel=9 control=4 value=90 time=0.0234375\n",
      "note_on channel=9 note=42 velocity=35 time=0\n",
      "note_on channel=9 note=36 velocity=0 time=0.078125\n",
      "note_on channel=9 note=42 velocity=0 time=0.021875000000000002\n",
      "control_change channel=9 control=4 value=90 time=0.078125\n",
      "note_on channel=9 note=42 velocity=53 time=0\n",
      "note_on channel=9 note=42 velocity=0 time=0.1015625\n",
      "note_on channel=9 note=38 velocity=31 time=0.0765625\n",
      "control_change channel=9 control=4 value=90 time=0.0015625\n",
      "note_on channel=9 note=42 velocity=38 time=0\n",
      "note_on channel=9 note=38 velocity=0 time=0.03125\n",
      "note_on channel=9 note=38 velocity=23 time=0\n",
      "note_on channel=9 note=38 velocity=0 time=0.06875\n",
      "note_on channel=9 note=42 velocity=0 time=0.0015625\n",
      "note_on channel=9 note=38 velocity=5 time=0.053125000000000006\n",
      "note_on channel=9 note=36 velocity=43 time=0.0203125\n",
      "control_change channel=9 control=4 value=90 time=0.009375000000000001\n",
      "note_on channel=9 note=42 velocity=48 time=0\n",
      "note_on channel=9 note=38 velocity=0 time=0.0703125\n",
      "note_on channel=9 note=36 velocity=0 time=0.021875000000000002\n",
      "note_on channel=9 note=42 velocity=0 time=0.009375000000000001\n",
      "note_on channel=9 note=38 velocity=13 time=0.065625\n",
      "control_change channel=9 control=4 value=90 time=0.010937500000000001\n",
      "note_on channel=9 note=42 velocity=37 time=0\n",
      "note_on channel=9 note=38 velocity=0 time=0.09062500000000001\n",
      "note_on channel=9 note=42 velocity=0 time=0.010937500000000001\n",
      "note_on channel=9 note=36 velocity=41 time=0.08281250000000001\n",
      "control_change channel=9 control=4 value=90 time=0.015625\n",
      "note_on channel=9 note=42 velocity=43 time=0\n",
      "note_on channel=9 note=36 velocity=0 time=0.0859375\n",
      "note_on channel=9 note=42 velocity=0 time=0.015625\n",
      "control_change channel=9 control=4 value=90 time=0.0734375\n",
      "note_on channel=9 note=42 velocity=31 time=0\n",
      "note_on channel=9 note=42 velocity=0 time=0.1015625\n",
      "note_on channel=9 note=37 velocity=68 time=0.09375\n",
      "control_change channel=9 control=4 value=90 time=0.009375000000000001\n",
      "note_on channel=9 note=42 velocity=53 time=0\n",
      "note_on channel=9 note=38 velocity=38 time=0.03125\n",
      "note_on channel=9 note=37 velocity=0 time=0.060937500000000006\n",
      "note_on channel=9 note=42 velocity=0 time=0.0078125\n",
      "note_on channel=9 note=38 velocity=0 time=0.03125\n",
      "control_change channel=9 control=4 value=90 time=0.0546875\n",
      "note_on channel=9 note=42 velocity=30 time=0\n",
      "note_on channel=9 note=42 velocity=0 time=0.1\n",
      "control_change channel=9 control=4 value=90 time=0.07968750000000001\n",
      "note_on channel=9 note=42 velocity=67 time=0\n",
      "note_on channel=9 note=42 velocity=0 time=0.1015625\n",
      "control_change channel=9 control=4 value=90 time=0.078125\n",
      "note_on channel=9 note=42 velocity=46 time=0\n",
      "note_on channel=9 note=38 velocity=26 time=0.0078125\n",
      "note_on channel=9 note=42 velocity=0 time=0.09375\n",
      "note_on channel=9 note=38 velocity=0 time=0.00625\n",
      "control_change channel=9 control=4 value=90 time=0.084375\n",
      "note_on channel=9 note=42 velocity=58 time=0\n",
      "note_on channel=9 note=42 velocity=0 time=0.1015625\n",
      "note_on channel=9 note=38 velocity=23 time=0.07500000000000001\n",
      "control_change channel=9 control=4 value=90 time=0.004687500000000001\n",
      "note_on channel=9 note=42 velocity=38 time=0\n",
      "note_on channel=9 note=38 velocity=0 time=0.09531250000000001\n",
      "note_on channel=9 note=42 velocity=0 time=0.00625\n",
      "note_on channel=9 note=36 velocity=36 time=0.065625\n",
      "control_change channel=9 control=4 value=90 time=0.0328125\n",
      "note_on channel=9 note=42 velocity=41 time=0\n",
      "note_on channel=9 note=36 velocity=0 time=0.06875\n",
      "note_on channel=9 note=42 velocity=0 time=0.0328125\n",
      "control_change channel=9 control=4 value=90 time=0.07968750000000001\n",
      "note_on channel=9 note=42 velocity=43 time=0\n",
      "note_on channel=9 note=38 velocity=11 time=0.0484375\n",
      "note_on channel=9 note=42 velocity=0 time=0.053125000000000006\n",
      "note_on channel=9 note=38 velocity=0 time=0.0484375\n",
      "control_change channel=9 control=4 value=90 time=0.037500000000000006\n",
      "note_on channel=9 note=38 velocity=50 time=0\n",
      "note_on channel=9 note=42 velocity=60 time=0\n",
      "note_on channel=9 note=38 velocity=0 time=0.1015625\n",
      "note_on channel=9 note=42 velocity=0 time=0\n",
      "note_on channel=9 note=36 velocity=41 time=0.08281250000000001\n",
      "control_change channel=9 control=4 value=90 time=0.0125\n",
      "note_on channel=9 note=42 velocity=46 time=0\n",
      "note_on channel=9 note=36 velocity=0 time=0.0890625\n",
      "note_on channel=9 note=42 velocity=0 time=0.0125\n",
      "control_change channel=9 control=4 value=90 time=0.0765625\n",
      "note_on channel=9 note=42 velocity=83 time=0\n",
      "note_on channel=9 note=42 velocity=0 time=0.1015625\n",
      "note_on channel=9 note=38 velocity=40 time=0.0734375\n",
      "control_change channel=9 control=4 value=90 time=0.018750000000000003\n",
      "note_on channel=9 note=42 velocity=46 time=0\n",
      "note_on channel=9 note=38 velocity=0 time=0.018750000000000003\n",
      "note_on channel=9 note=38 velocity=30 time=0\n",
      "note_on channel=9 note=38 velocity=0 time=0.028125\n",
      "note_on channel=9 note=38 velocity=36 time=0\n",
      "note_on channel=9 note=38 velocity=0 time=0.034375\n",
      "note_on channel=9 note=42 velocity=0 time=0.018750000000000003\n",
      "note_on channel=9 note=36 velocity=40 time=0.051562500000000004\n",
      "control_change channel=9 control=4 value=90 time=0.03125\n",
      "note_on channel=9 note=42 velocity=41 time=0\n",
      "note_on channel=9 note=36 velocity=0 time=0.06875\n",
      "note_on channel=9 note=42 velocity=0 time=0.03125\n",
      "control_change channel=9 control=4 value=90 time=0.060937500000000006\n",
      "note_on channel=9 note=42 velocity=24 time=0\n",
      "note_on channel=9 note=38 velocity=13 time=0.009375000000000001\n",
      "note_on channel=9 note=42 velocity=0 time=0.0921875\n",
      "note_on channel=9 note=38 velocity=0 time=0.009375000000000001\n",
      "note_on channel=9 note=36 velocity=40 time=0.0734375\n",
      "control_change channel=9 control=4 value=90 time=0.0015625\n",
      "note_on channel=9 note=42 velocity=59 time=0\n",
      "note_on channel=9 note=36 velocity=0 time=0.1\n",
      "note_on channel=9 note=42 velocity=0 time=0\n",
      "control_change channel=9 control=4 value=90 time=0.08750000000000001\n",
      "note_on channel=9 note=42 velocity=31 time=0\n",
      "note_on channel=9 note=42 velocity=0 time=0.1015625\n",
      "control_change channel=9 control=4 value=90 time=0.1015625\n",
      "note_on channel=9 note=42 velocity=54 time=0\n",
      "note_on channel=9 note=37 velocity=67 time=0.0015625\n",
      "note_on channel=9 note=37 velocity=0 time=0.1\n",
      "note_on channel=9 note=42 velocity=0 time=0\n",
      "control_change channel=9 control=4 value=90 time=0.0765625\n",
      "note_on channel=9 note=42 velocity=34 time=0\n",
      "note_on channel=9 note=42 velocity=0 time=0.1015625\n",
      "control_change channel=9 control=4 value=90 time=0.0890625\n",
      "note_on channel=9 note=42 velocity=78 time=0\n",
      "note_on channel=9 note=42 velocity=0 time=0.1015625\n",
      "note_on channel=9 note=38 velocity=24 time=0.07968750000000001\n",
      "control_change channel=9 control=4 value=90 time=0.0078125\n",
      "note_on channel=9 note=42 velocity=40 time=0\n",
      "note_on channel=9 note=38 velocity=0 time=0.0921875\n",
      "note_on channel=9 note=42 velocity=0 time=0.009375000000000001\n",
      "control_change channel=9 control=4 value=90 time=0.0859375\n",
      "note_on channel=9 note=42 velocity=64 time=0\n",
      "note_on channel=9 note=42 velocity=0 time=0.1015625\n",
      "note_on channel=9 note=38 velocity=17 time=0.0671875\n",
      "control_change channel=9 control=4 value=90 time=0.021875000000000002\n",
      "note_on channel=9 note=42 velocity=36 time=0\n",
      "note_on channel=9 note=38 velocity=0 time=0.078125\n",
      "note_on channel=9 note=42 velocity=0 time=0.0234375\n",
      "note_on channel=9 note=36 velocity=33 time=0.046875\n",
      "control_change channel=9 control=4 value=90 time=0.040625\n",
      "note_on channel=9 note=42 velocity=47 time=0\n",
      "note_on channel=9 note=36 velocity=0 time=0.060937500000000006\n",
      "note_on channel=9 note=42 velocity=0 time=0.040625\n",
      "note_on channel=9 note=38 velocity=12 time=0.078125\n",
      "control_change channel=9 control=4 value=90 time=0.003125\n",
      "note_on channel=9 note=42 velocity=36 time=0\n",
      "note_on channel=9 note=38 velocity=0 time=0.096875\n",
      "note_on channel=9 note=42 velocity=0 time=0.004687500000000001\n",
      "note_on channel=9 note=38 velocity=59 time=0.0625\n",
      "control_change channel=9 control=4 value=90 time=0.025\n",
      "note_on channel=9 note=42 velocity=40 time=0\n",
      "control_change channel=9 control=4 value=86 time=0.0234375\n",
      "control_change channel=9 control=4 value=82 time=0.0234375\n",
      "control_change channel=9 control=4 value=78 time=0.0234375\n",
      "note_on channel=9 note=38 velocity=0 time=0.00625\n",
      "control_change channel=9 control=4 value=73 time=0.0171875\n",
      "note_on channel=9 note=42 velocity=0 time=0.0078125\n",
      "control_change channel=9 control=4 value=69 time=0.015625\n",
      "control_change channel=9 control=4 value=65 time=0.0234375\n",
      "control_change channel=9 control=4 value=61 time=0.0234375\n",
      "control_change channel=9 control=4 value=56 time=0.021875000000000002\n",
      "note_on channel=9 note=36 velocity=38 time=0\n",
      "note_on channel=9 note=46 velocity=61 time=0\n",
      "control_change channel=9 control=4 value=52 time=0.025\n",
      "control_change channel=9 control=4 value=51 time=0.003125\n",
      "control_change channel=9 control=4 value=27 time=0.0234375\n",
      "control_change channel=9 control=4 value=2 time=0.0234375\n",
      "control_change channel=9 control=4 value=0 time=0.0015625\n",
      "control_change channel=9 control=4 value=16 time=0.0234375\n",
      "note_on channel=9 note=36 velocity=0 time=0\n",
      "note_on channel=9 note=46 velocity=0 time=0\n",
      "control_change channel=9 control=4 value=32 time=0.0234375\n",
      "control_change channel=9 control=4 value=49 time=0.0234375\n",
      "control_change channel=9 control=4 value=65 time=0.0234375\n",
      "note_on channel=9 note=44 velocity=65 time=0.004687500000000001\n",
      "control_change channel=9 control=4 value=81 time=0.018750000000000003\n",
      "note_on channel=9 note=42 velocity=37 time=0\n",
      "control_change channel=9 control=4 value=90 time=0.0125\n",
      "note_on channel=9 note=44 velocity=0 time=0.06875\n",
      "note_on channel=9 note=42 velocity=0 time=0.0203125\n",
      "note_on channel=9 note=38 velocity=27 time=0.065625\n",
      "control_change channel=9 control=4 value=90 time=0.010937500000000001\n",
      "note_on channel=9 note=42 velocity=51 time=0\n",
      "note_on channel=9 note=38 velocity=0 time=0.09062500000000001\n",
      "note_on channel=9 note=42 velocity=0 time=0.010937500000000001\n",
      "note_on channel=9 note=36 velocity=29 time=0.05625\n",
      "control_change channel=9 control=4 value=90 time=0.035937500000000004\n",
      "note_on channel=9 note=42 velocity=41 time=0\n",
      "note_on channel=9 note=36 velocity=0 time=0.065625\n",
      "note_on channel=9 note=42 velocity=0 time=0.034375\n",
      "note_on channel=9 note=38 velocity=15 time=0.0734375\n",
      "control_change channel=9 control=4 value=90 time=0.0171875\n",
      "note_on channel=9 note=42 velocity=33 time=0\n",
      "note_on channel=9 note=38 velocity=0 time=0.084375\n",
      "note_on channel=9 note=42 velocity=0 time=0.0171875\n",
      "note_on channel=9 note=36 velocity=36 time=0.0625\n",
      "control_change channel=9 control=4 value=90 time=0.0140625\n",
      "note_on channel=9 note=42 velocity=48 time=0\n",
      "note_on channel=9 note=36 velocity=0 time=0.08750000000000001\n",
      "note_on channel=9 note=42 velocity=0 time=0.0140625\n",
      "control_change channel=9 control=4 value=90 time=0.0859375\n",
      "note_on channel=9 note=42 velocity=32 time=0\n",
      "note_on channel=9 note=38 velocity=8 time=0.010937500000000001\n",
      "note_on channel=9 note=42 velocity=0 time=0.09062500000000001\n",
      "note_on channel=9 note=38 velocity=0 time=0.009375000000000001\n",
      "note_on channel=9 note=38 velocity=57 time=0.06875\n",
      "control_change channel=9 control=4 value=90 time=0.010937500000000001\n",
      "note_on channel=9 note=42 velocity=47 time=0\n",
      "note_on channel=9 note=38 velocity=0 time=0.09062500000000001\n",
      "control_change channel=9 control=4 value=89 time=0.003125\n",
      "note_on channel=9 note=42 velocity=0 time=0.0078125\n",
      "control_change channel=9 control=4 value=87 time=0.0859375\n",
      "control_change channel=9 control=4 value=86 time=0.009375000000000001\n",
      "note_on channel=9 note=46 velocity=57 time=0\n",
      "note_on channel=9 note=36 velocity=38 time=0.0125\n",
      "control_change channel=9 control=4 value=73 time=0.010937500000000001\n",
      "control_change channel=9 control=4 value=59 time=0.0234375\n",
      "control_change channel=9 control=4 value=56 time=0.004687500000000001\n",
      "control_change channel=9 control=4 value=33 time=0.0234375\n",
      "control_change channel=9 control=4 value=10 time=0.0234375\n",
      "note_on channel=9 note=46 velocity=0 time=0.003125\n",
      "control_change channel=9 control=4 value=0 time=0.00625\n",
      "note_on channel=9 note=36 velocity=0 time=0.00625\n",
      "control_change channel=9 control=4 value=18 time=0.0171875\n",
      "control_change channel=9 control=4 value=36 time=0.0234375\n",
      "control_change channel=9 control=4 value=54 time=0.0234375\n",
      "note_on channel=9 note=44 velocity=70 time=0.0140625\n",
      "control_change channel=9 control=4 value=72 time=0.009375000000000001\n",
      "control_change channel=9 control=4 value=90 time=0.021875000000000002\n",
      "note_on channel=9 note=44 velocity=0 time=0.06875\n",
      "note_on channel=9 note=38 velocity=41 time=0.0578125\n",
      "control_change channel=9 control=4 value=90 time=0.026562500000000003\n",
      "note_on channel=9 note=42 velocity=57 time=0\n",
      "note_on channel=9 note=38 velocity=0 time=0.07500000000000001\n",
      "note_on channel=9 note=42 velocity=0 time=0.026562500000000003\n",
      "control_change channel=9 control=4 value=90 time=0.08125\n",
      "note_on channel=9 note=42 velocity=49 time=0\n",
      "note_on channel=9 note=42 velocity=0 time=0.10312500000000001\n",
      "note_on channel=9 note=38 velocity=5 time=0.060937500000000006\n",
      "control_change channel=9 control=4 value=90 time=0.0171875\n",
      "note_on channel=9 note=42 velocity=49 time=0\n",
      "note_on channel=9 note=38 velocity=0 time=0.08281250000000001\n",
      "note_on channel=9 note=42 velocity=0 time=0.018750000000000003\n",
      "note_on channel=9 note=36 velocity=26 time=0.037500000000000006\n",
      "control_change channel=9 control=4 value=90 time=0.046875\n",
      "note_on channel=9 note=42 velocity=52 time=0\n",
      "note_on channel=9 note=36 velocity=0 time=0.0546875\n",
      "note_on channel=9 note=42 velocity=0 time=0.046875\n",
      "note_on channel=9 note=38 velocity=11 time=0.084375\n",
      "control_change channel=9 control=4 value=90 time=0.003125\n",
      "note_on channel=9 note=42 velocity=40 time=0\n",
      "note_on channel=9 note=38 velocity=0 time=0.09843750000000001\n",
      "note_on channel=9 note=42 velocity=0 time=0.003125\n",
      "note_on channel=9 note=38 velocity=56 time=0.06406250000000001\n",
      "control_change channel=9 control=4 value=90 time=0.028125\n",
      "note_on channel=9 note=42 velocity=53 time=0\n",
      "control_change channel=9 control=4 value=87 time=0.046875\n",
      "note_on channel=9 note=38 velocity=0 time=0.025\n",
      "control_change channel=9 control=4 value=83 time=0.021875000000000002\n",
      "note_on channel=9 note=42 velocity=0 time=0.009375000000000001\n",
      "control_change channel=9 control=4 value=80 time=0.037500000000000006\n",
      "control_change channel=9 control=4 value=78 time=0.015625\n",
      "note_on channel=9 note=36 velocity=43 time=0.0015625\n",
      "control_change channel=9 control=4 value=67 time=0.021875000000000002\n",
      "note_on channel=9 note=46 velocity=53 time=0.0140625\n",
      "control_change channel=9 control=4 value=55 time=0.009375000000000001\n",
      "control_change channel=9 control=4 value=51 time=0.00625\n",
      "control_change channel=9 control=4 value=31 time=0.0234375\n",
      "control_change channel=9 control=4 value=10 time=0.0234375\n",
      "note_on channel=9 note=36 velocity=0 time=0.0015625\n",
      "control_change channel=9 control=4 value=0 time=0.0078125\n",
      "control_change channel=9 control=4 value=16 time=0.0234375\n",
      "note_on channel=9 note=46 velocity=0 time=0.004687500000000001\n",
      "control_change channel=9 control=4 value=33 time=0.018750000000000003\n",
      "control_change channel=9 control=4 value=50 time=0.0234375\n",
      "control_change channel=9 control=4 value=67 time=0.0234375\n",
      "note_on channel=9 note=44 velocity=55 time=0\n",
      "note_on channel=9 note=42 velocity=49 time=0.0203125\n",
      "control_change channel=9 control=4 value=84 time=0.003125\n",
      "control_change channel=9 control=4 value=90 time=0.0078125\n",
      "note_on channel=9 note=44 velocity=0 time=0.0703125\n",
      "note_on channel=9 note=42 velocity=0 time=0.0203125\n",
      "note_on channel=9 note=38 velocity=58 time=0.053125000000000006\n",
      "control_change channel=9 control=4 value=90 time=0.035937500000000004\n",
      "note_on channel=9 note=42 velocity=61 time=0\n",
      "note_on channel=9 note=38 velocity=0 time=0.065625\n",
      "note_on channel=9 note=42 velocity=0 time=0.035937500000000004\n",
      "control_change channel=9 control=4 value=90 time=0.0859375\n",
      "note_on channel=9 note=42 velocity=49 time=0\n",
      "note_on channel=9 note=42 velocity=0 time=0.1015625\n",
      "control_change channel=9 control=4 value=90 time=0.07187500000000001\n",
      "note_on channel=9 note=42 velocity=45 time=0\n",
      "note_on channel=9 note=42 velocity=0 time=0.1015625\n",
      "note_on channel=9 note=36 velocity=31 time=0.0140625\n",
      "control_change channel=9 control=4 value=90 time=0.07187500000000001\n",
      "note_on channel=9 note=42 velocity=45 time=0\n",
      "note_on channel=9 note=36 velocity=0 time=0.028125\n",
      "note_on channel=9 note=42 velocity=0 time=0.0734375\n",
      "note_on channel=9 note=38 velocity=8 time=0.053125000000000006\n",
      "control_change channel=9 control=4 value=90 time=0.0328125\n",
      "note_on channel=9 note=42 velocity=44 time=0\n",
      "note_on channel=9 note=38 velocity=0 time=0.06875\n",
      "note_on channel=9 note=42 velocity=0 time=0.0328125\n",
      "note_on channel=9 note=38 velocity=48 time=0.06406250000000001\n",
      "control_change channel=9 control=4 value=90 time=0.0171875\n",
      "note_on channel=9 note=42 velocity=70 time=0\n",
      "control_change channel=9 control=4 value=86 time=0.046875\n",
      "note_on channel=9 note=38 velocity=0 time=0.035937500000000004\n",
      "control_change channel=9 control=4 value=82 time=0.010937500000000001\n",
      "note_on channel=9 note=42 velocity=0 time=0.0078125\n",
      "control_change channel=9 control=4 value=78 time=0.029687500000000002\n",
      "control_change channel=9 control=4 value=61 time=0.0234375\n",
      "note_on channel=9 note=36 velocity=35 time=0\n",
      "control_change channel=9 control=4 value=43 time=0.0234375\n",
      "note_on channel=9 note=46 velocity=52 time=0.018750000000000003\n",
      "control_change channel=9 control=4 value=23 time=0.004687500000000001\n",
      "control_change channel=9 control=4 value=2 time=0.0234375\n",
      "control_change channel=9 control=4 value=0 time=0.0015625\n",
      "control_change channel=9 control=4 value=6 time=0.0234375\n",
      "note_on channel=9 note=36 velocity=0 time=0.004687500000000001\n",
      "control_change channel=9 control=4 value=13 time=0.018750000000000003\n",
      "control_change channel=9 control=4 value=20 time=0.0234375\n",
      "note_on channel=9 note=46 velocity=0 time=0.0015625\n",
      "control_change channel=9 control=4 value=27 time=0.021875000000000002\n",
      "control_change channel=9 control=4 value=32 time=0.0171875\n",
      "note_on channel=9 note=44 velocity=67 time=0.00625\n",
      "control_change channel=9 control=4 value=60 time=0.0171875\n",
      "control_change channel=9 control=4 value=88 time=0.0234375\n",
      "control_change channel=9 control=4 value=90 time=0.0015625\n",
      "note_on channel=9 note=42 velocity=53 time=0\n",
      "note_on channel=9 note=44 velocity=0 time=0.059375000000000004\n",
      "note_on channel=9 note=42 velocity=0 time=0.0421875\n",
      "note_on channel=9 note=38 velocity=63 time=0.06875\n",
      "control_change channel=9 control=4 value=90 time=0.010937500000000001\n",
      "note_on channel=9 note=42 velocity=67 time=0\n",
      "note_on channel=9 note=38 velocity=0 time=0.09062500000000001\n",
      "note_on channel=9 note=42 velocity=0 time=0.010937500000000001\n",
      "control_change channel=9 control=4 value=90 time=0.084375\n",
      "note_on channel=9 note=42 velocity=44 time=0\n",
      "note_on channel=9 note=42 velocity=0 time=0.1\n",
      "note_on channel=9 note=38 velocity=21 time=0.0546875\n",
      "control_change channel=9 control=4 value=90 time=0.029687500000000002\n",
      "note_on channel=9 note=42 velocity=40 time=0\n",
      "note_on channel=9 note=38 velocity=0 time=0.0703125\n",
      "note_on channel=9 note=42 velocity=0 time=0.03125\n",
      "note_on channel=9 note=36 velocity=40 time=0.0421875\n",
      "control_change channel=9 control=4 value=90 time=0.043750000000000004\n",
      "note_on channel=9 note=42 velocity=44 time=0\n",
      "note_on channel=9 note=36 velocity=0 time=0.0578125\n",
      "note_on channel=9 note=42 velocity=0 time=0.0421875\n",
      "note_on channel=9 note=38 velocity=16 time=0.08125\n",
      "control_change channel=9 control=4 value=90 time=0.0015625\n",
      "note_on channel=9 note=42 velocity=32 time=0\n",
      "note_on channel=9 note=38 velocity=0 time=0.09843750000000001\n",
      "note_on channel=9 note=42 velocity=0 time=0.003125\n",
      "note_on channel=9 note=38 velocity=52 time=0.06875\n",
      "control_change channel=9 control=4 value=90 time=0.0203125\n",
      "note_on channel=9 note=42 velocity=53 time=0\n",
      "control_change channel=9 control=4 value=87 time=0.0234375\n",
      "control_change channel=9 control=4 value=84 time=0.0234375\n",
      "control_change channel=9 control=4 value=81 time=0.0234375\n",
      "note_on channel=9 note=38 velocity=0 time=0.010937500000000001\n",
      "control_change channel=9 control=4 value=78 time=0.0125\n",
      "note_on channel=9 note=42 velocity=0 time=0.0078125\n",
      "control_change channel=9 control=4 value=75 time=0.015625\n",
      "control_change channel=9 control=4 value=72 time=0.0234375\n",
      "control_change channel=9 control=4 value=69 time=0.0234375\n",
      "control_change channel=9 control=4 value=68 time=0.0015625\n",
      "control_change channel=9 control=4 value=53 time=0.0234375\n",
      "note_on channel=9 note=46 velocity=65 time=0.0015625\n",
      "note_on channel=9 note=36 velocity=41 time=0.0078125\n",
      "control_change channel=9 control=4 value=38 time=0.0140625\n",
      "control_change channel=9 control=4 value=33 time=0.00625\n",
      "control_change channel=9 control=4 value=18 time=0.0234375\n",
      "control_change channel=9 control=4 value=3 time=0.0234375\n",
      "control_change channel=9 control=4 value=0 time=0.004687500000000001\n",
      "note_on channel=9 note=46 velocity=0 time=0.0203125\n",
      "control_change channel=9 control=4 value=16 time=0.003125\n",
      "note_on channel=9 note=36 velocity=0 time=0.00625\n",
      "control_change channel=9 control=4 value=32 time=0.0171875\n",
      "control_change channel=9 control=4 value=49 time=0.0234375\n",
      "control_change channel=9 control=4 value=65 time=0.0234375\n",
      "note_on channel=9 note=44 velocity=57 time=0.003125\n",
      "note_on channel=9 note=42 velocity=46 time=0.0125\n",
      "control_change channel=9 control=4 value=82 time=0.0078125\n",
      "control_change channel=9 control=4 value=90 time=0.010937500000000001\n",
      "note_on channel=9 note=44 velocity=0 time=0.0703125\n",
      "note_on channel=9 note=42 velocity=0 time=0.0125\n",
      "note_on channel=9 note=38 velocity=44 time=0.07500000000000001\n",
      "control_change channel=9 control=4 value=90 time=0.0078125\n",
      "note_on channel=9 note=42 velocity=58 time=0\n",
      "note_on channel=9 note=38 velocity=0 time=0.0921875\n",
      "note_on channel=9 note=42 velocity=0 time=0.009375000000000001\n",
      "note_on channel=9 note=36 velocity=39 time=0.065625\n",
      "control_change channel=9 control=4 value=90 time=0.025\n",
      "note_on channel=9 note=42 velocity=48 time=0\n",
      "note_on channel=9 note=36 velocity=0 time=0.07500000000000001\n",
      "note_on channel=9 note=42 velocity=0 time=0.025\n",
      "control_change channel=9 control=4 value=90 time=0.09062500000000001\n",
      "note_on channel=9 note=38 velocity=18 time=0\n",
      "note_on channel=9 note=42 velocity=43 time=0\n",
      "note_on channel=9 note=38 velocity=0 time=0.1015625\n",
      "note_on channel=9 note=42 velocity=0 time=0\n",
      "control_change channel=9 control=4 value=90 time=0.09375\n",
      "note_on channel=9 note=42 velocity=46 time=0\n",
      "note_on channel=9 note=36 velocity=42 time=0.0078125\n",
      "note_on channel=9 note=38 velocity=15 time=0.0078125\n",
      "note_on channel=9 note=42 velocity=0 time=0.084375\n",
      "note_on channel=9 note=36 velocity=0 time=0.0078125\n",
      "note_on channel=9 note=38 velocity=0 time=0.009375000000000001\n",
      "control_change channel=9 control=4 value=90 time=0.060937500000000006\n",
      "note_on channel=9 note=42 velocity=33 time=0\n",
      "note_on channel=9 note=42 velocity=0 time=0.10312500000000001\n",
      "control_change channel=9 control=4 value=90 time=0.109375\n",
      "note_on channel=9 note=42 velocity=71 time=0\n",
      "note_on channel=9 note=37 velocity=68 time=0.010937500000000001\n",
      "note_on channel=9 note=42 velocity=0 time=0.09062500000000001\n",
      "note_on channel=9 note=37 velocity=0 time=0.010937500000000001\n",
      "control_change channel=9 control=4 value=90 time=0.08750000000000001\n",
      "note_on channel=9 note=42 velocity=38 time=0\n",
      "note_on channel=9 note=42 velocity=0 time=0.1015625\n",
      "control_change channel=9 control=4 value=90 time=0.084375\n",
      "note_on channel=9 note=42 velocity=70 time=0\n",
      "note_on channel=9 note=42 velocity=0 time=0.1015625\n",
      "note_on channel=9 note=38 velocity=20 time=0.08281250000000001\n",
      "control_change channel=9 control=4 value=90 time=0.015625\n",
      "note_on channel=9 note=42 velocity=40 time=0\n",
      "note_on channel=9 note=38 velocity=0 time=0.084375\n",
      "note_on channel=9 note=42 velocity=0 time=0.0171875\n",
      "control_change channel=9 control=4 value=90 time=0.08750000000000001\n",
      "note_on channel=9 note=42 velocity=67 time=0\n",
      "note_on channel=9 note=42 velocity=0 time=0.1015625\n",
      "note_on channel=9 note=38 velocity=25 time=0.05625\n",
      "control_change channel=9 control=4 value=90 time=0.035937500000000004\n",
      "note_on channel=9 note=42 velocity=43 time=0\n",
      "note_on channel=9 note=38 velocity=0 time=0.06406250000000001\n",
      "note_on channel=9 note=42 velocity=0 time=0.037500000000000006\n",
      "note_on channel=9 note=36 velocity=31 time=0.0171875\n",
      "control_change channel=9 control=4 value=90 time=0.05625\n",
      "note_on channel=9 note=42 velocity=49 time=0\n",
      "note_on channel=9 note=36 velocity=0 time=0.045312500000000006\n",
      "note_on channel=9 note=42 velocity=0 time=0.0546875\n",
      "control_change channel=9 control=4 value=90 time=0.07500000000000001\n",
      "note_on channel=9 note=42 velocity=40 time=0\n",
      "note_on channel=9 note=42 velocity=0 time=0.1015625\n",
      "control_change channel=9 control=4 value=90 time=0.08750000000000001\n",
      "note_on channel=9 note=42 velocity=90 time=0\n",
      "note_on channel=9 note=38 velocity=64 time=0.003125\n",
      "note_on channel=9 note=42 velocity=0 time=0.09843750000000001\n",
      "note_on channel=9 note=38 velocity=0 time=0.003125\n",
      "note_on channel=9 note=36 velocity=39 time=0.1\n",
      "control_change channel=9 control=4 value=90 time=0.0078125\n",
      "note_on channel=9 note=42 velocity=39 time=0\n",
      "note_on channel=9 note=36 velocity=0 time=0.0921875\n",
      "note_on channel=9 note=42 velocity=0 time=0.009375000000000001\n",
      "control_change channel=9 control=4 value=90 time=0.07187500000000001\n",
      "note_on channel=9 note=42 velocity=63 time=0\n",
      "note_on channel=9 note=42 velocity=0 time=0.1015625\n",
      "note_on channel=9 note=38 velocity=25 time=0.0734375\n",
      "control_change channel=9 control=4 value=90 time=0.0203125\n",
      "note_on channel=9 note=42 velocity=53 time=0\n",
      "note_on channel=9 note=38 velocity=0 time=0.07968750000000001\n",
      "note_on channel=9 note=42 velocity=0 time=0.021875000000000002\n",
      "control_change channel=9 control=4 value=90 time=0.07187500000000001\n",
      "note_on channel=9 note=42 velocity=57 time=0\n",
      "note_on channel=9 note=36 velocity=33 time=0.0015625\n",
      "note_on channel=9 note=42 velocity=0 time=0.09843750000000001\n",
      "note_on channel=9 note=36 velocity=0 time=0.003125\n",
      "note_on channel=9 note=38 velocity=28 time=0.0625\n",
      "control_change channel=9 control=4 value=90 time=0.025\n",
      "note_on channel=9 note=42 velocity=45 time=0\n",
      "note_on channel=9 note=38 velocity=0 time=0.0765625\n",
      "note_on channel=9 note=42 velocity=0 time=0.025\n",
      "note_on channel=9 note=36 velocity=38 time=0.0734375\n",
      "control_change channel=9 control=4 value=90 time=0.0015625\n",
      "note_on channel=9 note=42 velocity=55 time=0\n",
      "note_on channel=9 note=36 velocity=0 time=0.1\n",
      "note_on channel=9 note=42 velocity=0 time=0\n",
      "note_on channel=9 note=38 velocity=17 time=0.0734375\n",
      "control_change channel=9 control=4 value=90 time=0.015625\n",
      "note_on channel=9 note=42 velocity=35 time=0\n",
      "note_on channel=9 note=38 velocity=0 time=0.0859375\n",
      "note_on channel=9 note=42 velocity=0 time=0.015625\n",
      "note_on channel=9 note=38 velocity=61 time=0.078125\n",
      "control_change channel=9 control=4 value=90 time=0.003125\n",
      "note_on channel=9 note=42 velocity=56 time=0\n",
      "control_change channel=9 control=4 value=89 time=0.046875\n",
      "control_change channel=9 control=4 value=87 time=0.046875\n",
      "note_on channel=9 note=38 velocity=0 time=0.003125\n",
      "note_on channel=9 note=42 velocity=0 time=0.004687500000000001\n",
      "control_change channel=9 control=4 value=85 time=0.0390625\n",
      "control_change channel=9 control=4 value=83 time=0.046875\n",
      "control_change channel=9 control=4 value=82 time=0.00625\n",
      "note_on channel=9 note=46 velocity=59 time=0\n",
      "control_change channel=9 control=4 value=66 time=0.0234375\n",
      "note_on channel=9 note=36 velocity=38 time=0.003125\n",
      "control_change channel=9 control=4 value=49 time=0.0203125\n",
      "control_change channel=9 control=4 value=50 time=0\n",
      "control_change channel=9 control=4 value=26 time=0.0234375\n",
      "control_change channel=9 control=4 value=2 time=0.0234375\n",
      "control_change channel=9 control=4 value=0 time=0.0015625\n",
      "note_on channel=9 note=46 velocity=0 time=0.004687500000000001\n",
      "control_change channel=9 control=4 value=18 time=0.018750000000000003\n",
      "note_on channel=9 note=36 velocity=0 time=0.009375000000000001\n",
      "control_change channel=9 control=4 value=36 time=0.0140625\n",
      "control_change channel=9 control=4 value=54 time=0.0234375\n",
      "note_on channel=9 note=44 velocity=67 time=0.015625\n",
      "control_change channel=9 control=4 value=72 time=0.0078125\n",
      "note_on channel=9 note=42 velocity=56 time=0\n",
      "control_change channel=9 control=4 value=90 time=0.0234375\n",
      "note_on channel=9 note=44 velocity=0 time=0.06875\n",
      "note_on channel=9 note=42 velocity=0 time=0.0078125\n",
      "note_on channel=9 note=38 velocity=59 time=0.0671875\n",
      "control_change channel=9 control=4 value=90 time=0.025\n",
      "note_on channel=9 note=42 velocity=68 time=0\n",
      "note_on channel=9 note=38 velocity=0 time=0.07500000000000001\n",
      "note_on channel=9 note=42 velocity=0 time=0.026562500000000003\n",
      "control_change channel=9 control=4 value=90 time=0.07500000000000001\n",
      "note_on channel=9 note=42 velocity=44 time=0\n",
      "note_on channel=9 note=42 velocity=0 time=0.1015625\n",
      "note_on channel=9 note=38 velocity=21 time=0.0625\n",
      "control_change channel=9 control=4 value=90 time=0.0171875\n",
      "note_on channel=9 note=42 velocity=57 time=0\n",
      "note_on channel=9 note=38 velocity=0 time=0.08281250000000001\n",
      "note_on channel=9 note=42 velocity=0 time=0.018750000000000003\n",
      "note_on channel=9 note=36 velocity=28 time=0.05\n",
      "control_change channel=9 control=4 value=90 time=0.018750000000000003\n",
      "note_on channel=9 note=42 velocity=53 time=0\n",
      "note_on channel=9 note=36 velocity=0 time=0.08281250000000001\n",
      "note_on channel=9 note=42 velocity=0 time=0.018750000000000003\n",
      "control_change channel=9 control=4 value=90 time=0.0890625\n",
      "note_on channel=9 note=42 velocity=40 time=0\n",
      "note_on channel=9 note=42 velocity=0 time=0.1015625\n",
      "control_change channel=9 control=4 value=90 time=0.07968750000000001\n",
      "note_on channel=9 note=42 velocity=49 time=0\n",
      "note_on channel=9 note=38 velocity=47 time=0.0015625\n",
      "control_change channel=9 control=4 value=87 time=0.045312500000000006\n",
      "control_change channel=9 control=4 value=83 time=0.046875\n",
      "note_on channel=9 note=42 velocity=0 time=0.00625\n",
      "note_on channel=9 note=38 velocity=0 time=0.003125\n",
      "control_change channel=9 control=4 value=79 time=0.037500000000000006\n",
      "control_change channel=9 control=4 value=78 time=0.004687500000000001\n",
      "control_change channel=9 control=4 value=65 time=0.0234375\n",
      "control_change channel=9 control=4 value=52 time=0.021875000000000002\n",
      "note_on channel=9 note=46 velocity=71 time=0\n",
      "note_on channel=9 note=36 velocity=34 time=0.004687500000000001\n",
      "control_change channel=9 control=4 value=44 time=0.009375000000000001\n",
      "control_change channel=9 control=4 value=25 time=0.0234375\n",
      "control_change channel=9 control=4 value=6 time=0.0234375\n",
      "control_change channel=9 control=4 value=0 time=0.00625\n",
      "control_change channel=9 control=4 value=15 time=0.0234375\n",
      "note_on channel=9 note=46 velocity=0 time=0.010937500000000001\n",
      "note_on channel=9 note=36 velocity=0 time=0.004687500000000001\n",
      "control_change channel=9 control=4 value=31 time=0.0078125\n",
      "control_change channel=9 control=4 value=47 time=0.0234375\n",
      "control_change channel=9 control=4 value=63 time=0.0234375\n",
      "note_on channel=9 note=44 velocity=62 time=0.00625\n",
      "control_change channel=9 control=4 value=79 time=0.0171875\n",
      "control_change channel=9 control=4 value=90 time=0.0140625\n",
      "note_on channel=9 note=42 velocity=54 time=0\n",
      "note_on channel=9 note=44 velocity=0 time=0.0703125\n",
      "note_on channel=9 note=42 velocity=0 time=0.03125\n",
      "note_on channel=9 note=38 velocity=47 time=0.060937500000000006\n",
      "control_change channel=9 control=4 value=90 time=0.018750000000000003\n",
      "note_on channel=9 note=42 velocity=61 time=0\n",
      "note_on channel=9 note=38 velocity=0 time=0.08281250000000001\n",
      "note_on channel=9 note=42 velocity=0 time=0.018750000000000003\n",
      "note_on channel=9 note=36 velocity=33 time=0.06406250000000001\n",
      "control_change channel=9 control=4 value=90 time=0.026562500000000003\n",
      "note_on channel=9 note=42 velocity=42 time=0\n",
      "note_on channel=9 note=36 velocity=0 time=0.0734375\n",
      "note_on channel=9 note=42 velocity=0 time=0.028125\n",
      "control_change channel=9 control=4 value=90 time=0.0671875\n",
      "note_on channel=9 note=42 velocity=39 time=0\n",
      "note_on channel=9 note=38 velocity=10 time=0.003125\n",
      "note_on channel=9 note=42 velocity=0 time=0.09843750000000001\n",
      "note_on channel=9 note=38 velocity=0 time=0.003125\n",
      "control_change channel=9 control=4 value=90 time=0.084375\n",
      "note_on channel=9 note=42 velocity=52 time=0\n",
      "note_on channel=9 note=36 velocity=41 time=0.004687500000000001\n",
      "note_on channel=9 note=42 velocity=0 time=0.096875\n",
      "note_on channel=9 note=36 velocity=0 time=0.003125\n",
      "control_change channel=9 control=4 value=90 time=0.0921875\n",
      "note_on channel=9 note=42 velocity=31 time=0\n",
      "note_on channel=9 note=42 velocity=0 time=0.1015625\n",
      "note_on channel=9 note=37 velocity=79 time=0.09375\n",
      "control_change channel=9 control=4 value=90 time=0.003125\n",
      "note_on channel=9 note=42 velocity=64 time=0\n",
      "note_on channel=9 note=37 velocity=0 time=0.09843750000000001\n",
      "note_on channel=9 note=42 velocity=0 time=0.0015625\n",
      "control_change channel=9 control=4 value=90 time=0.09531250000000001\n",
      "note_on channel=9 note=42 velocity=22 time=0\n",
      "note_on channel=9 note=42 velocity=0 time=0.1\n",
      "control_change channel=9 control=4 value=90 time=0.08281250000000001\n",
      "note_on channel=9 note=42 velocity=66 time=0\n",
      "note_on channel=9 note=42 velocity=0 time=0.1015625\n",
      "note_on channel=9 note=38 velocity=20 time=0.065625\n",
      "control_change channel=9 control=4 value=90 time=0.018750000000000003\n",
      "note_on channel=9 note=42 velocity=54 time=0\n",
      "note_on channel=9 note=38 velocity=0 time=0.08125\n",
      "note_on channel=9 note=42 velocity=0 time=0.0203125\n",
      "control_change channel=9 control=4 value=90 time=0.07968750000000001\n",
      "note_on channel=9 note=42 velocity=50 time=0\n",
      "note_on channel=9 note=42 velocity=0 time=0.1\n",
      "note_on channel=9 note=38 velocity=23 time=0.05\n",
      "control_change channel=9 control=4 value=90 time=0.037500000000000006\n",
      "note_on channel=9 note=42 velocity=48 time=0\n",
      "note_on channel=9 note=38 velocity=0 time=0.06406250000000001\n",
      "note_on channel=9 note=42 velocity=0 time=0.037500000000000006\n",
      "note_on channel=9 note=36 velocity=21 time=0.0546875\n",
      "note_on channel=9 note=38 velocity=14 time=0.015625\n",
      "control_change channel=9 control=4 value=90 time=0.010937500000000001\n",
      "note_on channel=9 note=42 velocity=49 time=0\n",
      "note_on channel=9 note=36 velocity=0 time=0.07500000000000001\n",
      "note_on channel=9 note=38 velocity=0 time=0.015625\n",
      "note_on channel=9 note=42 velocity=0 time=0.010937500000000001\n",
      "control_change channel=9 control=4 value=90 time=0.0734375\n",
      "note_on channel=9 note=42 velocity=27 time=0\n",
      "note_on channel=9 note=36 velocity=35 time=0.0078125\n",
      "note_on channel=9 note=42 velocity=0 time=0.09375\n",
      "note_on channel=9 note=36 velocity=0 time=0.00625\n",
      "note_on channel=9 note=37 velocity=71 time=0.09062500000000001\n",
      "control_change channel=9 control=4 value=90 time=0.0078125\n",
      "note_on channel=9 note=42 velocity=65 time=0\n",
      "note_on channel=9 note=37 velocity=0 time=0.0921875\n",
      "note_on channel=9 note=42 velocity=0 time=0.009375000000000001\n",
      "control_change channel=9 control=4 value=90 time=0.078125\n",
      "note_on channel=9 note=42 velocity=38 time=0\n",
      "note_on channel=9 note=42 velocity=0 time=0.1015625\n",
      "control_change channel=9 control=4 value=90 time=0.084375\n",
      "note_on channel=9 note=42 velocity=83 time=0\n",
      "note_on channel=9 note=42 velocity=0 time=0.1015625\n",
      "note_on channel=9 note=38 velocity=29 time=0.0734375\n",
      "control_change channel=9 control=4 value=90 time=0.021875000000000002\n",
      "note_on channel=9 note=42 velocity=48 time=0\n",
      "note_on channel=9 note=38 velocity=0 time=0.0125\n",
      "note_on channel=9 note=38 velocity=30 time=0\n",
      "note_on channel=9 note=38 velocity=0 time=0.025\n",
      "note_on channel=9 note=38 velocity=26 time=0\n",
      "note_on channel=9 note=38 velocity=0 time=0.040625\n",
      "note_on channel=9 note=42 velocity=0 time=0.0234375\n",
      "note_on channel=9 note=38 velocity=10 time=0.021875000000000002\n",
      "note_on channel=9 note=38 velocity=0 time=0.015625\n",
      "note_on channel=9 note=36 velocity=36 time=0.025\n",
      "control_change channel=9 control=4 value=90 time=0.028125\n",
      "note_on channel=9 note=42 velocity=38 time=0\n",
      "note_on channel=9 note=36 velocity=0 time=0.0734375\n",
      "note_on channel=9 note=42 velocity=0 time=0.026562500000000003\n",
      "control_change channel=9 control=4 value=90 time=0.0765625\n",
      "note_on channel=9 note=42 velocity=45 time=0\n",
      "note_on channel=9 note=38 velocity=27 time=0.003125\n",
      "note_on channel=9 note=42 velocity=0 time=0.096875\n",
      "note_on channel=9 note=38 velocity=0 time=0.004687500000000001\n",
      "control_change channel=9 control=4 value=90 time=0.078125\n",
      "note_on channel=9 note=42 velocity=55 time=0\n",
      "note_on channel=9 note=36 velocity=21 time=0.004687500000000001\n",
      "note_on channel=9 note=42 velocity=0 time=0.096875\n",
      "note_on channel=9 note=36 velocity=0 time=0.004687500000000001\n",
      "control_change channel=9 control=4 value=90 time=0.065625\n",
      "note_on channel=9 note=42 velocity=38 time=0\n",
      "note_on channel=9 note=36 velocity=35 time=0.040625\n",
      "note_on channel=9 note=42 velocity=0 time=0.060937500000000006\n",
      "note_on channel=9 note=36 velocity=0 time=0.040625\n",
      "control_change channel=9 control=4 value=90 time=0.065625\n",
      "note_on channel=9 note=42 velocity=49 time=0\n",
      "note_on channel=9 note=38 velocity=75 time=0.004687500000000001\n",
      "note_on channel=9 note=42 velocity=0 time=0.096875\n",
      "note_on channel=9 note=38 velocity=0 time=0.003125\n",
      "control_change channel=9 control=4 value=90 time=0.0703125\n",
      "note_on channel=9 note=42 velocity=34 time=0\n",
      "note_on channel=9 note=42 velocity=0 time=0.1015625\n",
      "control_change channel=9 control=4 value=90 time=0.1015625\n",
      "note_on channel=9 note=42 velocity=73 time=0\n",
      "note_on channel=9 note=42 velocity=0 time=0.1015625\n",
      "control_change channel=9 control=4 value=90 time=0.08750000000000001\n",
      "note_on channel=9 note=42 velocity=51 time=0\n",
      "note_on channel=9 note=38 velocity=22 time=0.0078125\n",
      "note_on channel=9 note=42 velocity=0 time=0.09375\n",
      "note_on channel=9 note=38 velocity=0 time=0.0078125\n",
      "control_change channel=9 control=4 value=90 time=0.08125\n",
      "note_on channel=9 note=42 velocity=64 time=0\n",
      "note_on channel=9 note=42 velocity=0 time=0.1015625\n",
      "note_on channel=9 note=38 velocity=24 time=0.08125\n",
      "control_change channel=9 control=4 value=90 time=0.0078125\n",
      "note_on channel=9 note=42 velocity=41 time=0\n",
      "note_on channel=9 note=38 velocity=0 time=0.0921875\n",
      "note_on channel=9 note=42 velocity=0 time=0.009375000000000001\n",
      "control_change channel=9 control=4 value=90 time=0.08125\n",
      "note_on channel=9 note=42 velocity=52 time=0\n",
      "note_on channel=9 note=36 velocity=30 time=0.0171875\n",
      "note_on channel=9 note=42 velocity=0 time=0.084375\n",
      "note_on channel=9 note=36 velocity=0 time=0.015625\n",
      "control_change channel=9 control=4 value=90 time=0.07187500000000001\n",
      "note_on channel=9 note=42 velocity=32 time=0\n",
      "note_on channel=9 note=36 velocity=34 time=0.0203125\n",
      "note_on channel=9 note=42 velocity=0 time=0.07968750000000001\n",
      "note_on channel=9 note=36 velocity=0 time=0.0203125\n",
      "note_on channel=9 note=37 velocity=77 time=0.078125\n",
      "control_change channel=9 control=4 value=90 time=0.004687500000000001\n",
      "note_on channel=9 note=42 velocity=84 time=0\n",
      "note_on channel=9 note=37 velocity=0 time=0.09531250000000001\n",
      "note_on channel=9 note=42 velocity=0 time=0.00625\n",
      "control_change channel=9 control=4 value=90 time=0.09375\n",
      "note_on channel=9 note=42 velocity=38 time=0\n",
      "note_on channel=9 note=42 velocity=0 time=0.1\n",
      "control_change channel=9 control=4 value=90 time=0.07968750000000001\n",
      "note_on channel=9 note=42 velocity=83 time=0\n",
      "note_on channel=9 note=42 velocity=0 time=0.1015625\n",
      "note_on channel=9 note=38 velocity=15 time=0.06875\n",
      "control_change channel=9 control=4 value=90 time=0.0171875\n",
      "note_on channel=9 note=42 velocity=46 time=0\n",
      "note_on channel=9 note=38 velocity=0 time=0.018750000000000003\n",
      "note_on channel=9 note=38 velocity=11 time=0\n",
      "note_on channel=9 note=38 velocity=0 time=0.025\n",
      "note_on channel=9 note=38 velocity=12 time=0\n",
      "note_on channel=9 note=38 velocity=0 time=0.040625\n",
      "note_on channel=9 note=38 velocity=8 time=0.0015625\n",
      "note_on channel=9 note=42 velocity=0 time=0.015625\n",
      "note_on channel=9 note=38 velocity=0 time=0.0171875\n",
      "control_change channel=9 control=4 value=90 time=0.051562500000000004\n",
      "note_on channel=9 note=36 velocity=37 time=0\n",
      "note_on channel=9 note=42 velocity=50 time=0\n",
      "note_on channel=9 note=36 velocity=0 time=0.1015625\n",
      "note_on channel=9 note=42 velocity=0 time=0\n",
      "note_on channel=9 note=38 velocity=15 time=0.06406250000000001\n",
      "control_change channel=9 control=4 value=90 time=0.021875000000000002\n",
      "note_on channel=9 note=42 velocity=32 time=0\n",
      "note_on channel=9 note=38 velocity=0 time=0.07968750000000001\n",
      "note_on channel=9 note=42 velocity=0 time=0.021875000000000002\n",
      "note_on channel=9 note=36 velocity=21 time=0.0765625\n",
      "control_change channel=9 control=4 value=90 time=0.0171875\n",
      "note_on channel=9 note=42 velocity=60 time=0\n",
      "note_on channel=9 note=36 velocity=0 time=0.084375\n",
      "note_on channel=9 note=42 velocity=0 time=0.0171875\n",
      "note_on channel=9 note=36 velocity=29 time=0.05625\n",
      "control_change channel=9 control=4 value=90 time=0.029687500000000002\n",
      "note_on channel=9 note=42 velocity=40 time=0\n",
      "note_on channel=9 note=36 velocity=0 time=0.0703125\n",
      "note_on channel=9 note=42 velocity=0 time=0.0328125\n",
      "note_on channel=9 note=38 velocity=72 time=0.08281250000000001\n",
      "control_change channel=9 control=4 value=90 time=0.004687500000000001\n",
      "note_on channel=9 note=42 velocity=67 time=0\n",
      "note_on channel=9 note=38 velocity=0 time=0.09531250000000001\n",
      "note_on channel=9 note=42 velocity=0 time=0.00625\n",
      "control_change channel=9 control=4 value=90 time=0.08281250000000001\n",
      "note_on channel=9 note=42 velocity=39 time=0\n",
      "note_on channel=9 note=42 velocity=0 time=0.1015625\n",
      "control_change channel=9 control=4 value=90 time=0.0734375\n",
      "note_on channel=9 note=42 velocity=63 time=0\n",
      "note_on channel=9 note=42 velocity=0 time=0.1015625\n",
      "note_on channel=9 note=38 velocity=22 time=0.08281250000000001\n",
      "control_change channel=9 control=4 value=90 time=0.010937500000000001\n",
      "note_on channel=9 note=42 velocity=51 time=0\n",
      "note_on channel=9 note=38 velocity=0 time=0.09062500000000001\n",
      "note_on channel=9 note=42 velocity=0 time=0.010937500000000001\n",
      "control_change channel=9 control=4 value=90 time=0.07968750000000001\n",
      "note_on channel=9 note=42 velocity=64 time=0\n",
      "note_on channel=9 note=42 velocity=0 time=0.1015625\n",
      "note_on channel=9 note=38 velocity=19 time=0.08281250000000001\n",
      "control_change channel=9 control=4 value=90 time=0.0140625\n",
      "note_on channel=9 note=42 velocity=51 time=0\n",
      "note_on channel=9 note=38 velocity=0 time=0.0859375\n",
      "note_on channel=9 note=42 velocity=0 time=0.015625\n",
      "note_on channel=9 note=36 velocity=19 time=0.060937500000000006\n",
      "control_change channel=9 control=4 value=90 time=0.018750000000000003\n",
      "note_on channel=9 note=42 velocity=49 time=0\n",
      "note_on channel=9 note=38 velocity=14 time=0.003125\n",
      "note_on channel=9 note=36 velocity=0 time=0.07968750000000001\n",
      "note_on channel=9 note=42 velocity=0 time=0.018750000000000003\n",
      "note_on channel=9 note=38 velocity=0 time=0.003125\n",
      "note_on channel=9 note=36 velocity=38 time=0.0734375\n",
      "control_change channel=9 control=4 value=90 time=0.004687500000000001\n",
      "note_on channel=9 note=42 velocity=46 time=0\n",
      "control_change channel=9 control=4 value=87 time=0.046875\n",
      "control_change channel=9 control=4 value=83 time=0.046875\n",
      "note_on channel=9 note=36 velocity=0 time=0.003125\n",
      "note_on channel=9 note=42 velocity=0 time=0.004687500000000001\n",
      "control_change channel=9 control=4 value=79 time=0.0390625\n",
      "control_change channel=9 control=4 value=78 time=0.00625\n",
      "control_change channel=9 control=4 value=72 time=0.0234375\n",
      "note_on channel=9 note=38 velocity=68 time=0.0203125\n",
      "control_change channel=9 control=4 value=65 time=0.003125\n",
      "control_change channel=9 control=4 value=61 time=0.010937500000000001\n",
      "note_on channel=9 note=26 velocity=94 time=0\n",
      "control_change channel=9 control=4 value=56 time=0.046875\n",
      "control_change channel=9 control=4 value=54 time=0.0125\n",
      "control_change channel=9 control=4 value=43 time=0.0234375\n",
      "note_on channel=9 note=38 velocity=0 time=0.004687500000000001\n",
      "note_on channel=9 note=26 velocity=0 time=0.0125\n",
      "control_change channel=9 control=4 value=32 time=0.00625\n",
      "control_change channel=9 control=4 value=30 time=0.003125\n",
      "control_change channel=9 control=4 value=31 time=0.09375\n",
      "control_change channel=9 control=4 value=32 time=0.09375\n",
      "control_change channel=9 control=4 value=33 time=0.08125\n",
      "note_on channel=9 note=26 velocity=108 time=0\n",
      "control_change channel=9 control=4 value=32 time=0.09375\n",
      "note_on channel=9 note=26 velocity=0 time=0.0078125\n",
      "control_change channel=9 control=4 value=30 time=0.0859375\n",
      "control_change channel=9 control=4 value=28 time=0.0765625\n",
      "control_change channel=9 control=4 value=24 time=0.0234375\n",
      "control_change channel=9 control=4 value=20 time=0.0234375\n",
      "control_change channel=9 control=4 value=18 time=0.009375000000000001\n",
      "control_change channel=9 control=4 value=25 time=0.0234375\n",
      "control_change channel=9 control=4 value=32 time=0.0234375\n",
      "control_change channel=9 control=4 value=33 time=0.0015625\n",
      "note_on channel=9 note=36 velocity=41 time=0.015625\n",
      "note_on channel=9 note=44 velocity=32 time=0\n",
      "control_change channel=9 control=4 value=61 time=0.0078125\n",
      "note_on channel=9 note=42 velocity=50 time=0.010937500000000001\n",
      "control_change channel=9 control=4 value=90 time=0.0125\n",
      "note_on channel=9 note=36 velocity=0 time=0.06875\n",
      "note_on channel=9 note=44 velocity=0 time=0\n",
      "note_on channel=9 note=42 velocity=0 time=0.018750000000000003\n",
      "control_change channel=9 control=4 value=90 time=0.060937500000000006\n",
      "note_on channel=9 note=42 velocity=40 time=0\n",
      "note_on channel=9 note=42 velocity=0 time=0.1015625\n",
      "control_change channel=9 control=4 value=90 time=0.09375\n",
      "note_on channel=9 note=42 velocity=96 time=0\n",
      "note_on channel=9 note=42 velocity=0 time=0.1015625\n",
      "note_on channel=9 note=36 velocity=33 time=0.07500000000000001\n",
      "control_change channel=9 control=4 value=90 time=0.0140625\n",
      "note_on channel=9 note=42 velocity=32 time=0\n",
      "note_on channel=9 note=36 velocity=0 time=0.0859375\n",
      "note_on channel=9 note=42 velocity=0 time=0.015625\n",
      "note_on channel=9 note=38 velocity=69 time=0.08281250000000001\n",
      "control_change channel=9 control=4 value=90 time=0.003125\n",
      "note_on channel=9 note=42 velocity=93 time=0\n",
      "note_on channel=9 note=38 velocity=0 time=0.096875\n",
      "note_on channel=9 note=42 velocity=0 time=0.004687500000000001\n",
      "control_change channel=9 control=4 value=90 time=0.08125\n",
      "note_on channel=9 note=42 velocity=36 time=0\n",
      "note_on channel=9 note=42 velocity=0 time=0.1015625\n",
      "control_change channel=9 control=4 value=90 time=0.08281250000000001\n",
      "note_on channel=9 note=42 velocity=84 time=0\n",
      "note_on channel=9 note=42 velocity=0 time=0.1015625\n",
      "note_on channel=9 note=38 velocity=44 time=0.0921875\n",
      "control_change channel=9 control=4 value=90 time=0.0015625\n",
      "note_on channel=9 note=42 velocity=40 time=0\n",
      "note_on channel=9 note=38 velocity=0 time=0.09843750000000001\n",
      "note_on channel=9 note=42 velocity=0 time=0.0015625\n",
      "control_change channel=9 control=4 value=90 time=0.0859375\n",
      "note_on channel=9 note=42 velocity=67 time=0\n",
      "note_on channel=9 note=42 velocity=0 time=0.1015625\n",
      "note_on channel=9 note=38 velocity=21 time=0.06875\n",
      "control_change channel=9 control=4 value=90 time=0.021875000000000002\n",
      "note_on channel=9 note=42 velocity=29 time=0\n",
      "note_on channel=9 note=38 velocity=0 time=0.07968750000000001\n",
      "note_on channel=9 note=42 velocity=0 time=0.0203125\n",
      "note_on channel=9 note=36 velocity=22 time=0.0671875\n",
      "note_on channel=9 note=38 velocity=19 time=0\n",
      "control_change channel=9 control=4 value=90 time=0.0125\n",
      "note_on channel=9 note=42 velocity=50 time=0\n",
      "note_on channel=9 note=36 velocity=0 time=0.0890625\n",
      "note_on channel=9 note=38 velocity=0 time=0\n",
      "note_on channel=9 note=42 velocity=0 time=0.010937500000000001\n",
      "note_on channel=9 note=36 velocity=31 time=0.065625\n",
      "control_change channel=9 control=4 value=90 time=0.0078125\n",
      "note_on channel=9 note=42 velocity=27 time=0\n",
      "control_change channel=9 control=4 value=85 time=0.046875\n",
      "note_on channel=9 note=36 velocity=0 time=0.045312500000000006\n",
      "control_change channel=9 control=4 value=80 time=0.0015625\n",
      "note_on channel=9 note=42 velocity=0 time=0.0078125\n",
      "control_change channel=9 control=4 value=75 time=0.03125\n",
      "control_change channel=9 control=4 value=66 time=0.0234375\n",
      "control_change channel=9 control=4 value=56 time=0.0234375\n",
      "note_on channel=9 note=38 velocity=64 time=0.009375000000000001\n",
      "control_change channel=9 control=4 value=48 time=0.009375000000000001\n",
      "note_on channel=9 note=26 velocity=82 time=0\n",
      "control_change channel=9 control=4 value=44 time=0.0234375\n",
      "control_change channel=9 control=4 value=39 time=0.0234375\n",
      "control_change channel=9 control=4 value=36 time=0.0125\n",
      "note_on channel=9 note=38 velocity=0 time=0.0328125\n",
      "note_on channel=9 note=26 velocity=0 time=0.0078125\n",
      "control_change channel=9 control=4 value=36 time=0.275\n",
      "note_on channel=9 note=46 velocity=77 time=0\n",
      "control_change channel=9 control=4 value=38 time=0.09375\n",
      "note_on channel=9 note=46 velocity=0 time=0.0078125\n",
      "control_change channel=9 control=4 value=40 time=0.0328125\n",
      "control_change channel=9 control=4 value=37 time=0.0234375\n",
      "control_change channel=9 control=4 value=34 time=0.0234375\n",
      "note_on channel=9 note=38 velocity=8 time=0.0078125\n",
      "control_change channel=9 control=4 value=30 time=0.015625\n",
      "control_change channel=9 control=4 value=27 time=0.0234375\n",
      "control_change channel=9 control=4 value=24 time=0.0234375\n",
      "control_change channel=9 control=4 value=20 time=0.0234375\n",
      "note_on channel=9 note=38 velocity=0 time=0.015625\n",
      "control_change channel=9 control=4 value=17 time=0.0078125\n",
      "control_change channel=9 control=4 value=16 time=0.003125\n",
      "control_change channel=9 control=4 value=36 time=0.0234375\n",
      "control_change channel=9 control=4 value=57 time=0.0234375\n",
      "note_on channel=9 note=44 velocity=35 time=0.004687500000000001\n",
      "control_change channel=9 control=4 value=78 time=0.018750000000000003\n",
      "note_on channel=9 note=36 velocity=43 time=0\n",
      "note_on channel=9 note=42 velocity=46 time=0.009375000000000001\n",
      "control_change channel=9 control=4 value=90 time=0.003125\n",
      "note_on channel=9 note=44 velocity=0 time=0.06875\n",
      "note_on channel=9 note=36 velocity=0 time=0.0203125\n",
      "note_on channel=9 note=42 velocity=0 time=0.0078125\n",
      "control_change channel=9 control=4 value=90 time=0.0734375\n",
      "note_on channel=9 note=42 velocity=33 time=0\n",
      "note_on channel=9 note=42 velocity=0 time=0.1015625\n",
      "control_change channel=9 control=4 value=90 time=0.084375\n",
      "note_on channel=9 note=42 velocity=94 time=0\n",
      "note_on channel=9 note=42 velocity=0 time=0.1015625\n",
      "note_on channel=9 note=36 velocity=30 time=0.08125\n",
      "control_change channel=9 control=4 value=90 time=0.0078125\n",
      "note_on channel=9 note=42 velocity=13 time=0\n",
      "note_on channel=9 note=36 velocity=0 time=0.0921875\n",
      "note_on channel=9 note=42 velocity=0 time=0.0078125\n",
      "control_change channel=9 control=4 value=90 time=0.0890625\n",
      "note_on channel=9 note=42 velocity=83 time=0\n",
      "note_on channel=9 note=38 velocity=66 time=0.0015625\n",
      "note_on channel=9 note=42 velocity=0 time=0.09843750000000001\n",
      "note_on channel=9 note=38 velocity=0 time=0.003125\n",
      "control_change channel=9 control=4 value=90 time=0.0859375\n",
      "note_on channel=9 note=42 velocity=33 time=0\n",
      "note_on channel=9 note=42 velocity=0 time=0.1015625\n",
      "control_change channel=9 control=4 value=90 time=0.09062500000000001\n",
      "note_on channel=9 note=42 velocity=95 time=0\n",
      "note_on channel=9 note=42 velocity=0 time=0.1015625\n",
      "control_change channel=9 control=4 value=90 time=0.08750000000000001\n",
      "note_on channel=9 note=42 velocity=29 time=0\n",
      "note_on channel=9 note=38 velocity=50 time=0.0140625\n",
      "note_on channel=9 note=42 velocity=0 time=0.08750000000000001\n",
      "note_on channel=9 note=38 velocity=0 time=0.0125\n",
      "control_change channel=9 control=4 value=90 time=0.0703125\n",
      "note_on channel=9 note=42 velocity=79 time=0\n",
      "note_on channel=9 note=42 velocity=0 time=0.1015625\n",
      "note_on channel=9 note=38 velocity=13 time=0.06875\n",
      "control_change channel=9 control=4 value=90 time=0.021875000000000002\n",
      "note_on channel=9 note=42 velocity=32 time=0\n",
      "note_on channel=9 note=38 velocity=0 time=0.078125\n",
      "note_on channel=9 note=42 velocity=0 time=0.021875000000000002\n",
      "note_on channel=9 note=36 velocity=21 time=0.028125\n",
      "note_on channel=9 note=38 velocity=23 time=0.051562500000000004\n",
      "control_change channel=9 control=4 value=90 time=0.0015625\n",
      "note_on channel=9 note=42 velocity=40 time=0\n",
      "note_on channel=9 note=36 velocity=0 time=0.0484375\n",
      "note_on channel=9 note=38 velocity=0 time=0.051562500000000004\n",
      "note_on channel=9 note=42 velocity=0 time=0.0015625\n",
      "note_on channel=9 note=36 velocity=36 time=0.0671875\n",
      "control_change channel=9 control=4 value=90 time=0.0078125\n",
      "note_on channel=9 note=42 velocity=24 time=0\n",
      "control_change channel=9 control=4 value=88 time=0.046875\n",
      "note_on channel=9 note=36 velocity=0 time=0.045312500000000006\n",
      "control_change channel=9 control=4 value=86 time=0.0015625\n",
      "note_on channel=9 note=42 velocity=0 time=0.0078125\n",
      "control_change channel=9 control=4 value=83 time=0.03125\n",
      "control_change channel=9 control=4 value=75 time=0.0234375\n",
      "control_change channel=9 control=4 value=67 time=0.0234375\n",
      "control_change channel=9 control=4 value=63 time=0.010937500000000001\n",
      "note_on channel=9 note=26 velocity=71 time=0\n",
      "note_on channel=9 note=38 velocity=64 time=0\n",
      "control_change channel=9 control=4 value=60 time=0.0234375\n",
      "control_change channel=9 control=4 value=56 time=0.0234375\n",
      "control_change channel=9 control=4 value=54 time=0.00625\n",
      "control_change channel=9 control=4 value=47 time=0.0234375\n",
      "control_change channel=9 control=4 value=39 time=0.0234375\n",
      "note_on channel=9 note=26 velocity=0 time=0\n",
      "note_on channel=9 note=38 velocity=0 time=0\n",
      "control_change channel=9 control=4 value=35 time=0.0125\n",
      "control_change channel=9 control=4 value=36 time=0.09375\n",
      "control_change channel=9 control=4 value=37 time=0.09375\n",
      "control_change channel=9 control=4 value=38 time=0.06875\n",
      "note_on channel=9 note=26 velocity=76 time=0\n",
      "control_change channel=9 control=4 value=35 time=0.046875\n",
      "control_change channel=9 control=4 value=32 time=0.046875\n",
      "note_on channel=9 note=26 velocity=0 time=0.0078125\n",
      "control_change channel=9 control=4 value=28 time=0.0390625\n",
      "control_change channel=9 control=4 value=25 time=0.046875\n",
      "note_on channel=9 note=38 velocity=6 time=0.0328125\n",
      "control_change channel=9 control=4 value=21 time=0.0140625\n",
      "control_change channel=9 control=4 value=18 time=0.046875\n",
      "control_change channel=9 control=4 value=16 time=0.021875000000000002\n",
      "note_on channel=9 note=38 velocity=0 time=0.0171875\n",
      "control_change channel=9 control=4 value=26 time=0.00625\n",
      "control_change channel=9 control=4 value=36 time=0.0234375\n",
      "control_change channel=9 control=4 value=39 time=0.00625\n",
      "note_on channel=9 note=44 velocity=27 time=0.015625\n",
      "control_change channel=9 control=4 value=64 time=0.0078125\n",
      "note_on channel=9 note=36 velocity=38 time=0.004687500000000001\n",
      "control_change channel=9 control=4 value=90 time=0.018750000000000003\n",
      "note_on channel=9 note=42 velocity=50 time=0\n",
      "note_on channel=9 note=44 velocity=0 time=0.06875\n",
      "note_on channel=9 note=36 velocity=0 time=0.0140625\n",
      "note_on channel=9 note=42 velocity=0 time=0.018750000000000003\n",
      "control_change channel=9 control=4 value=90 time=0.0671875\n",
      "note_on channel=9 note=42 velocity=35 time=0\n",
      "note_on channel=9 note=42 velocity=0 time=0.1015625\n",
      "control_change channel=9 control=4 value=90 time=0.0859375\n",
      "note_on channel=9 note=42 velocity=81 time=0\n",
      "note_on channel=9 note=42 velocity=0 time=0.1015625\n",
      "note_on channel=9 note=36 velocity=35 time=0.078125\n",
      "control_change channel=9 control=4 value=90 time=0.010937500000000001\n",
      "note_on channel=9 note=42 velocity=21 time=0\n",
      "note_on channel=9 note=36 velocity=0 time=0.0890625\n",
      "note_on channel=9 note=42 velocity=0 time=0.0125\n",
      "note_on channel=9 note=38 velocity=64 time=0.084375\n",
      "control_change channel=9 control=4 value=90 time=0.004687500000000001\n",
      "note_on channel=9 note=42 velocity=66 time=0\n",
      "note_on channel=9 note=38 velocity=0 time=0.096875\n",
      "note_on channel=9 note=42 velocity=0 time=0.004687500000000001\n",
      "control_change channel=9 control=4 value=90 time=0.0765625\n",
      "note_on channel=9 note=42 velocity=43 time=0\n",
      "note_on channel=9 note=42 velocity=0 time=0.1\n",
      "control_change channel=9 control=4 value=90 time=0.084375\n",
      "note_on channel=9 note=42 velocity=84 time=0\n",
      "note_on channel=9 note=42 velocity=0 time=0.1015625\n",
      "control_change channel=9 control=4 value=90 time=0.08125\n",
      "note_on channel=9 note=42 velocity=32 time=0\n",
      "note_on channel=9 note=38 velocity=21 time=0.003125\n",
      "note_on channel=9 note=42 velocity=0 time=0.096875\n",
      "note_on channel=9 note=38 velocity=0 time=0.004687500000000001\n",
      "control_change channel=9 control=4 value=90 time=0.08125\n",
      "note_on channel=9 note=42 velocity=87 time=0\n",
      "note_on channel=9 note=42 velocity=0 time=0.1015625\n",
      "note_on channel=9 note=38 velocity=35 time=0.08281250000000001\n",
      "control_change channel=9 control=4 value=90 time=0.004687500000000001\n",
      "note_on channel=9 note=42 velocity=32 time=0\n",
      "note_on channel=9 note=38 velocity=0 time=0.096875\n",
      "note_on channel=9 note=42 velocity=0 time=0.004687500000000001\n",
      "control_change channel=9 control=4 value=90 time=0.07968750000000001\n",
      "note_on channel=9 note=42 velocity=48 time=0\n",
      "note_on channel=9 note=36 velocity=33 time=0.00625\n",
      "note_on channel=9 note=42 velocity=0 time=0.09531250000000001\n",
      "note_on channel=9 note=36 velocity=0 time=0.00625\n",
      "control_change channel=9 control=4 value=90 time=0.0625\n",
      "note_on channel=9 note=42 velocity=34 time=0\n",
      "note_on channel=9 note=36 velocity=40 time=0.0203125\n",
      "control_change channel=9 control=4 value=85 time=0.026562500000000003\n",
      "control_change channel=9 control=4 value=80 time=0.046875\n",
      "note_on channel=9 note=42 velocity=0 time=0.0078125\n",
      "note_on channel=9 note=36 velocity=0 time=0.018750000000000003\n",
      "control_change channel=9 control=4 value=75 time=0.0203125\n",
      "control_change channel=9 control=4 value=73 time=0.0171875\n",
      "control_change channel=9 control=4 value=65 time=0.0234375\n",
      "note_on channel=9 note=37 velocity=65 time=0.0125\n",
      "note_on channel=9 note=26 velocity=72 time=0.00625\n",
      "control_change channel=9 control=4 value=56 time=0.004687500000000001\n",
      "control_change channel=9 control=4 value=51 time=0.0125\n",
      "note_on channel=9 note=38 velocity=41 time=0.0125\n",
      "control_change channel=9 control=4 value=44 time=0.010937500000000001\n",
      "control_change channel=9 control=4 value=36 time=0.0234375\n",
      "control_change channel=9 control=4 value=28 time=0.0203125\n",
      "note_on channel=9 note=37 velocity=0 time=0.010937500000000001\n",
      "note_on channel=9 note=26 velocity=0 time=0.00625\n",
      "note_on channel=9 note=38 velocity=0 time=0.029687500000000002\n",
      "control_change channel=9 control=4 value=29 time=0.046875\n",
      "control_change channel=9 control=4 value=31 time=0.09375\n",
      "control_change channel=9 control=4 value=33 time=0.09375\n",
      "note_on channel=9 note=26 velocity=70 time=0\n",
      "control_change channel=9 control=4 value=30 time=0.046875\n",
      "control_change channel=9 control=4 value=26 time=0.046875\n",
      "note_on channel=9 note=26 velocity=0 time=0.0078125\n",
      "control_change channel=9 control=4 value=23 time=0.0390625\n",
      "control_change channel=9 control=4 value=19 time=0.046875\n",
      "note_on channel=9 note=38 velocity=18 time=0.018750000000000003\n",
      "control_change channel=9 control=4 value=15 time=0.028125\n",
      "note_on channel=9 note=38 velocity=0 time=0.028125\n",
      "note_on channel=9 note=38 velocity=19 time=0\n",
      "control_change channel=9 control=4 value=12 time=0.018750000000000003\n",
      "note_on channel=9 note=38 velocity=0 time=0.025\n",
      "note_on channel=9 note=38 velocity=8 time=0\n",
      "control_change channel=9 control=4 value=9 time=0.003125\n",
      "control_change channel=9 control=4 value=13 time=0.0234375\n",
      "note_on channel=9 note=38 velocity=0 time=0.021875000000000002\n",
      "note_on channel=9 note=38 velocity=8 time=0\n",
      "control_change channel=9 control=4 value=17 time=0.0015625\n",
      "control_change channel=9 control=4 value=18 time=0.003125\n",
      "note_on channel=9 note=38 velocity=0 time=0.003125\n",
      "note_on channel=9 note=44 velocity=37 time=0.015625\n",
      "control_change channel=9 control=4 value=51 time=0.004687500000000001\n",
      "note_on channel=9 note=36 velocity=44 time=0.004687500000000001\n",
      "note_on channel=9 note=42 velocity=41 time=0.0015625\n",
      "control_change channel=9 control=4 value=84 time=0.0171875\n",
      "control_change channel=9 control=4 value=90 time=0.003125\n",
      "note_on channel=9 note=44 velocity=0 time=0.0703125\n",
      "note_on channel=9 note=36 velocity=0 time=0.0078125\n",
      "note_on channel=9 note=42 velocity=0 time=0.003125\n",
      "control_change channel=9 control=4 value=90 time=0.060937500000000006\n",
      "note_on channel=9 note=42 velocity=36 time=0\n",
      "note_on channel=9 note=42 velocity=0 time=0.1015625\n",
      "note_on channel=9 note=36 velocity=44 time=0.1\n",
      "control_change channel=9 control=4 value=90 time=0.004687500000000001\n",
      "note_on channel=9 note=42 velocity=51 time=0\n",
      "note_on channel=9 note=36 velocity=0 time=0.096875\n",
      "note_on channel=9 note=42 velocity=0 time=0.004687500000000001\n",
      "control_change channel=9 control=4 value=90 time=0.0890625\n",
      "note_on channel=9 note=42 velocity=24 time=0\n",
      "note_on channel=9 note=42 velocity=0 time=0.1015625\n",
      "note_on channel=9 note=38 velocity=67 time=0.08281250000000001\n",
      "control_change channel=9 control=4 value=90 time=0.0125\n",
      "note_on channel=9 note=42 velocity=64 time=0\n",
      "note_on channel=9 note=38 velocity=0 time=0.08750000000000001\n",
      "note_on channel=9 note=42 velocity=0 time=0.0140625\n",
      "control_change channel=9 control=4 value=90 time=0.08750000000000001\n",
      "note_on channel=9 note=36 velocity=46 time=0\n",
      "note_on channel=9 note=42 velocity=28 time=0\n",
      "note_on channel=9 note=36 velocity=0 time=0.1015625\n",
      "note_on channel=9 note=42 velocity=0 time=0\n",
      "control_change channel=9 control=4 value=90 time=0.08750000000000001\n",
      "note_on channel=9 note=42 velocity=52 time=0\n",
      "note_on channel=9 note=42 velocity=0 time=0.1015625\n",
      "note_on channel=9 note=38 velocity=73 time=0.078125\n",
      "control_change channel=9 control=4 value=90 time=0.0140625\n",
      "note_on channel=9 note=42 velocity=27 time=0\n",
      "note_on channel=9 note=38 velocity=0 time=0.08750000000000001\n",
      "note_on channel=9 note=42 velocity=0 time=0.0140625\n",
      "control_change channel=9 control=4 value=90 time=0.084375\n",
      "note_on channel=9 note=42 velocity=24 time=0\n",
      "note_on channel=9 note=42 velocity=0 time=0.1015625\n",
      "control_change channel=9 control=4 value=90 time=0.07500000000000001\n",
      "note_on channel=9 note=42 velocity=36 time=0\n",
      "note_on channel=9 note=42 velocity=0 time=0.1015625\n",
      "control_change channel=9 control=4 value=90 time=0.09843750000000001\n",
      "note_on channel=9 note=36 velocity=43 time=0\n",
      "note_on channel=9 note=42 velocity=54 time=0\n",
      "note_on channel=9 note=36 velocity=0 time=0.1015625\n",
      "note_on channel=9 note=42 velocity=0 time=0\n",
      "control_change channel=9 control=4 value=90 time=0.0859375\n",
      "note_on channel=9 note=42 velocity=24 time=0\n",
      "note_on channel=9 note=42 velocity=0 time=0.1015625\n",
      "control_change channel=9 control=4 value=90 time=0.09062500000000001\n",
      "note_on channel=9 note=42 velocity=40 time=0\n",
      "note_on channel=9 note=38 velocity=59 time=0.003125\n",
      "note_on channel=9 note=42 velocity=0 time=0.09843750000000001\n",
      "note_on channel=9 note=38 velocity=0 time=0.003125\n",
      "control_change channel=9 control=4 value=90 time=0.09062500000000001\n",
      "note_on channel=9 note=42 velocity=27 time=0\n",
      "note_on channel=9 note=36 velocity=43 time=0.004687500000000001\n",
      "note_on channel=9 note=42 velocity=0 time=0.096875\n",
      "note_on channel=9 note=36 velocity=0 time=0.003125\n",
      "control_change channel=9 control=4 value=90 time=0.078125\n",
      "note_on channel=9 note=42 velocity=32 time=0\n",
      "note_on channel=9 note=42 velocity=0 time=0.1015625\n",
      "note_on channel=9 note=37 velocity=63 time=0.084375\n",
      "control_change channel=9 control=4 value=90 time=0.0140625\n",
      "note_on channel=9 note=42 velocity=33 time=0\n",
      "note_on channel=9 note=37 velocity=0 time=0.0859375\n",
      "note_on channel=9 note=42 velocity=0 time=0.015625\n",
      "control_change channel=9 control=4 value=90 time=0.0703125\n",
      "note_on channel=9 note=42 velocity=36 time=0\n",
      "note_on channel=9 note=42 velocity=0 time=0.1015625\n",
      "control_change channel=9 control=4 value=90 time=0.08125\n",
      "note_on channel=9 note=42 velocity=52 time=0\n",
      "note_on channel=9 note=42 velocity=0 time=0.1015625\n",
      "note_on channel=9 note=36 velocity=48 time=0.07187500000000001\n",
      "control_change channel=9 control=4 value=90 time=0.025\n",
      "note_on channel=9 note=42 velocity=40 time=0\n",
      "note_on channel=9 note=36 velocity=0 time=0.07500000000000001\n",
      "note_on channel=9 note=42 velocity=0 time=0.026562500000000003\n",
      "control_change channel=9 control=4 value=90 time=0.0859375\n",
      "note_on channel=9 note=42 velocity=24 time=0\n",
      "note_on channel=9 note=42 velocity=0 time=0.1015625\n",
      "control_change channel=9 control=4 value=90 time=0.0765625\n",
      "note_on channel=9 note=38 velocity=56 time=0\n",
      "note_on channel=9 note=42 velocity=41 time=0\n",
      "note_on channel=9 note=38 velocity=0 time=0.1015625\n",
      "note_on channel=9 note=42 velocity=0 time=0\n",
      "control_change channel=9 control=4 value=90 time=0.1\n",
      "note_on channel=9 note=42 velocity=31 time=0\n",
      "note_on channel=9 note=36 velocity=40 time=0.010937500000000001\n",
      "note_on channel=9 note=42 velocity=0 time=0.09062500000000001\n",
      "note_on channel=9 note=36 velocity=0 time=0.009375000000000001\n",
      "control_change channel=9 control=4 value=90 time=0.07500000000000001\n",
      "note_on channel=9 note=42 velocity=46 time=0\n",
      "note_on channel=9 note=42 velocity=0 time=0.1015625\n",
      "control_change channel=9 control=4 value=90 time=0.084375\n",
      "note_on channel=9 note=38 velocity=56 time=0\n",
      "note_on channel=9 note=42 velocity=42 time=0\n",
      "note_on channel=9 note=38 velocity=0 time=0.1015625\n",
      "note_on channel=9 note=42 velocity=0 time=0\n",
      "control_change channel=9 control=4 value=90 time=0.084375\n",
      "note_on channel=9 note=42 velocity=30 time=0\n",
      "note_on channel=9 note=42 velocity=0 time=0.1015625\n",
      "control_change channel=9 control=4 value=90 time=0.08125\n",
      "note_on channel=9 note=42 velocity=35 time=0\n",
      "note_on channel=9 note=42 velocity=0 time=0.1015625\n",
      "control_change channel=9 control=4 value=90 time=0.0859375\n",
      "note_on channel=9 note=42 velocity=55 time=0\n",
      "note_on channel=9 note=36 velocity=39 time=0.00625\n",
      "note_on channel=9 note=42 velocity=0 time=0.096875\n",
      "note_on channel=9 note=36 velocity=0 time=0.004687500000000001\n",
      "control_change channel=9 control=4 value=90 time=0.0734375\n",
      "note_on channel=9 note=42 velocity=27 time=0\n",
      "note_on channel=9 note=42 velocity=0 time=0.1015625\n",
      "note_on channel=9 note=38 velocity=56 time=0.084375\n",
      "control_change channel=9 control=4 value=90 time=0.0078125\n",
      "note_on channel=9 note=42 velocity=40 time=0\n",
      "control_change channel=9 control=4 value=86 time=0.0234375\n",
      "control_change channel=9 control=4 value=81 time=0.0234375\n",
      "control_change channel=9 control=4 value=77 time=0.0234375\n",
      "note_on channel=9 note=38 velocity=0 time=0.021875000000000002\n",
      "control_change channel=9 control=4 value=72 time=0.0015625\n",
      "note_on channel=9 note=42 velocity=0 time=0.0078125\n",
      "control_change channel=9 control=4 value=67 time=0.015625\n",
      "control_change channel=9 control=4 value=63 time=0.0234375\n",
      "control_change channel=9 control=4 value=58 time=0.0234375\n",
      "control_change channel=9 control=4 value=54 time=0.0234375\n",
      "note_on channel=9 note=46 velocity=43 time=0.0140625\n",
      "note_on channel=9 note=36 velocity=33 time=0.004687500000000001\n",
      "control_change channel=9 control=4 value=49 time=0.004687500000000001\n",
      "control_change channel=9 control=4 value=45 time=0.018750000000000003\n",
      "control_change channel=9 control=4 value=27 time=0.0234375\n",
      "control_change channel=9 control=4 value=9 time=0.0234375\n",
      "control_change channel=9 control=4 value=0 time=0.010937500000000001\n",
      "note_on channel=9 note=46 velocity=0 time=0.0140625\n",
      "note_on channel=9 note=36 velocity=0 time=0.00625\n",
      "control_change channel=9 control=4 value=18 time=0.003125\n",
      "control_change channel=9 control=4 value=36 time=0.0234375\n",
      "control_change channel=9 control=4 value=54 time=0.0234375\n",
      "note_on channel=9 note=44 velocity=70 time=0.0140625\n",
      "control_change channel=9 control=4 value=72 time=0.009375000000000001\n",
      "note_on channel=9 note=42 velocity=40 time=0.018750000000000003\n",
      "control_change channel=9 control=4 value=90 time=0.003125\n",
      "note_on channel=9 note=44 velocity=0 time=0.06875\n",
      "note_on channel=9 note=42 velocity=0 time=0.028125\n",
      "note_on channel=9 note=38 velocity=59 time=0.084375\n",
      "control_change channel=9 control=4 value=90 time=0.004687500000000001\n",
      "note_on channel=9 note=42 velocity=52 time=0\n",
      "note_on channel=9 note=38 velocity=0 time=0.096875\n",
      "note_on channel=9 note=42 velocity=0 time=0.004687500000000001\n",
      "control_change channel=9 control=4 value=90 time=0.07968750000000001\n",
      "note_on channel=9 note=42 velocity=31 time=0\n",
      "note_on channel=9 note=42 velocity=0 time=0.1015625\n",
      "control_change channel=9 control=4 value=90 time=0.08125\n",
      "note_on channel=9 note=42 velocity=48 time=0\n",
      "note_on channel=9 note=42 velocity=0 time=0.1015625\n",
      "note_on channel=9 note=36 velocity=28 time=0.053125000000000006\n",
      "control_change channel=9 control=4 value=90 time=0.0203125\n",
      "note_on channel=9 note=42 velocity=49 time=0\n",
      "note_on channel=9 note=36 velocity=0 time=0.07968750000000001\n",
      "note_on channel=9 note=42 velocity=0 time=0.021875000000000002\n",
      "control_change channel=9 control=4 value=90 time=0.07187500000000001\n",
      "note_on channel=9 note=42 velocity=45 time=0\n",
      "note_on channel=9 note=42 velocity=0 time=0.1015625\n",
      "note_on channel=9 note=38 velocity=55 time=0.09062500000000001\n",
      "control_change channel=9 control=4 value=90 time=0.003125\n",
      "note_on channel=9 note=42 velocity=53 time=0\n",
      "control_change channel=9 control=4 value=86 time=0.046875\n",
      "control_change channel=9 control=4 value=82 time=0.046875\n",
      "note_on channel=9 note=38 velocity=0 time=0.003125\n",
      "note_on channel=9 note=42 velocity=0 time=0.004687500000000001\n",
      "control_change channel=9 control=4 value=77 time=0.0390625\n",
      "control_change channel=9 control=4 value=73 time=0.046875\n",
      "note_on channel=9 note=46 velocity=34 time=0.004687500000000001\n",
      "control_change channel=9 control=4 value=71 time=0.0078125\n",
      "note_on channel=9 note=36 velocity=47 time=0.003125\n",
      "control_change channel=9 control=4 value=39 time=0.0203125\n",
      "control_change channel=9 control=4 value=7 time=0.0234375\n",
      "control_change channel=9 control=4 value=0 time=0.004687500000000001\n",
      "control_change channel=9 control=4 value=13 time=0.0234375\n",
      "note_on channel=9 note=46 velocity=0 time=0.018750000000000003\n",
      "control_change channel=9 control=4 value=27 time=0.004687500000000001\n",
      "note_on channel=9 note=36 velocity=0 time=0.004687500000000001\n",
      "control_change channel=9 control=4 value=41 time=0.018750000000000003\n",
      "control_change channel=9 control=4 value=55 time=0.0234375\n",
      "control_change channel=9 control=4 value=68 time=0.0234375\n",
      "note_on channel=9 note=44 velocity=57 time=0.004687500000000001\n",
      "control_change channel=9 control=4 value=82 time=0.018750000000000003\n",
      "control_change channel=9 control=4 value=90 time=0.0125\n",
      "note_on channel=9 note=44 velocity=0 time=0.0703125\n",
      "note_on channel=9 note=38 velocity=54 time=0.07968750000000001\n",
      "control_change channel=9 control=4 value=90 time=0.0015625\n",
      "note_on channel=9 note=42 velocity=58 time=0\n",
      "note_on channel=9 note=38 velocity=0 time=0.09843750000000001\n",
      "note_on channel=9 note=42 velocity=0 time=0.003125\n",
      "control_change channel=9 control=4 value=90 time=0.08281250000000001\n",
      "note_on channel=9 note=42 velocity=38 time=0\n",
      "note_on channel=9 note=42 velocity=0 time=0.1\n",
      "control_change channel=9 control=4 value=90 time=0.0765625\n",
      "note_on channel=9 note=42 velocity=40 time=0\n",
      "note_on channel=9 note=42 velocity=0 time=0.1015625\n",
      "note_on channel=9 note=36 velocity=39 time=0.08125\n",
      "control_change channel=9 control=4 value=90 time=0.015625\n",
      "note_on channel=9 note=42 velocity=47 time=0\n",
      "note_on channel=9 note=36 velocity=0 time=0.0859375\n",
      "note_on channel=9 note=42 velocity=0 time=0.0140625\n",
      "control_change channel=9 control=4 value=90 time=0.09062500000000001\n",
      "note_on channel=9 note=42 velocity=9 time=0\n",
      "note_on channel=9 note=42 velocity=0 time=0.1015625\n",
      "note_on channel=9 note=38 velocity=58 time=0.07187500000000001\n",
      "control_change channel=9 control=4 value=90 time=0.0234375\n",
      "note_on channel=9 note=42 velocity=34 time=0\n",
      "control_change channel=9 control=4 value=85 time=0.0234375\n",
      "control_change channel=9 control=4 value=80 time=0.0234375\n",
      "control_change channel=9 control=4 value=75 time=0.0234375\n",
      "note_on channel=9 note=38 velocity=0 time=0.0078125\n",
      "control_change channel=9 control=4 value=70 time=0.015625\n",
      "note_on channel=9 note=42 velocity=0 time=0.0078125\n",
      "control_change channel=9 control=4 value=65 time=0.015625\n",
      "control_change channel=9 control=4 value=60 time=0.0234375\n",
      "control_change channel=9 control=4 value=55 time=0.0234375\n",
      "note_on channel=9 note=36 velocity=36 time=0.021875000000000002\n",
      "control_change channel=9 control=4 value=50 time=0.0015625\n",
      "note_on channel=9 note=46 velocity=37 time=0\n",
      "control_change channel=9 control=4 value=47 time=0.0125\n",
      "control_change channel=9 control=4 value=26 time=0.0234375\n",
      "control_change channel=9 control=4 value=5 time=0.0234375\n",
      "control_change channel=9 control=4 value=0 time=0.004687500000000001\n",
      "control_change channel=9 control=4 value=16 time=0.0234375\n",
      "note_on channel=9 note=36 velocity=0 time=0.010937500000000001\n",
      "note_on channel=9 note=46 velocity=0 time=0.0015625\n",
      "control_change channel=9 control=4 value=32 time=0.010937500000000001\n",
      "control_change channel=9 control=4 value=48 time=0.0234375\n",
      "control_change channel=9 control=4 value=64 time=0.0234375\n",
      "note_on channel=9 note=44 velocity=55 time=0.00625\n",
      "control_change channel=9 control=4 value=80 time=0.0171875\n",
      "note_on channel=9 note=42 velocity=36 time=0.0078125\n",
      "control_change channel=9 control=4 value=90 time=0.00625\n",
      "note_on channel=9 note=44 velocity=0 time=0.06875\n",
      "note_on channel=9 note=42 velocity=0 time=0.025\n",
      "note_on channel=9 note=38 velocity=58 time=0.084375\n",
      "control_change channel=9 control=4 value=90 time=0.0015625\n",
      "note_on channel=9 note=42 velocity=47 time=0\n",
      "note_on channel=9 note=38 velocity=0 time=0.09843750000000001\n",
      "note_on channel=9 note=42 velocity=0 time=0.003125\n",
      "control_change channel=9 control=4 value=90 time=0.0765625\n",
      "note_on channel=9 note=42 velocity=37 time=0\n",
      "note_on channel=9 note=42 velocity=0 time=0.1015625\n",
      "control_change channel=9 control=4 value=90 time=0.08125\n",
      "note_on channel=9 note=42 velocity=43 time=0\n",
      "note_on channel=9 note=42 velocity=0 time=0.1015625\n",
      "control_change channel=9 control=4 value=90 time=0.08750000000000001\n",
      "note_on channel=9 note=42 velocity=50 time=0\n",
      "note_on channel=9 note=36 velocity=36 time=0.0078125\n",
      "note_on channel=9 note=42 velocity=0 time=0.09375\n",
      "note_on channel=9 note=36 velocity=0 time=0.0078125\n",
      "control_change channel=9 control=4 value=90 time=0.078125\n",
      "note_on channel=9 note=42 velocity=34 time=0\n",
      "note_on channel=9 note=38 velocity=20 time=0.026562500000000003\n",
      "note_on channel=9 note=42 velocity=0 time=0.07500000000000001\n",
      "note_on channel=9 note=38 velocity=0 time=0.026562500000000003\n",
      "control_change channel=9 control=4 value=90 time=0.06875\n",
      "note_on channel=9 note=42 velocity=40 time=0\n",
      "note_on channel=9 note=38 velocity=59 time=0.004687500000000001\n",
      "control_change channel=9 control=4 value=86 time=0.018750000000000003\n",
      "control_change channel=9 control=4 value=82 time=0.0234375\n",
      "control_change channel=9 control=4 value=78 time=0.0234375\n",
      "control_change channel=9 control=4 value=74 time=0.0234375\n",
      "note_on channel=9 note=42 velocity=0 time=0.0078125\n",
      "note_on channel=9 note=38 velocity=0 time=0.003125\n",
      "control_change channel=9 control=4 value=70 time=0.0125\n",
      "control_change channel=9 control=4 value=66 time=0.0234375\n",
      "control_change channel=9 control=4 value=62 time=0.0234375\n",
      "control_change channel=9 control=4 value=58 time=0.0234375\n",
      "note_on channel=9 note=46 velocity=37 time=0.00625\n",
      "note_on channel=9 note=36 velocity=38 time=0.010937500000000001\n",
      "control_change channel=9 control=4 value=54 time=0.0015625\n",
      "control_change channel=9 control=4 value=32 time=0.0234375\n",
      "control_change channel=9 control=4 value=9 time=0.0234375\n",
      "control_change channel=9 control=4 value=0 time=0.009375000000000001\n",
      "control_change channel=9 control=4 value=16 time=0.0234375\n",
      "note_on channel=9 note=46 velocity=0 time=0.0078125\n",
      "note_on channel=9 note=36 velocity=0 time=0.010937500000000001\n",
      "control_change channel=9 control=4 value=33 time=0.004687500000000001\n",
      "control_change channel=9 control=4 value=49 time=0.0234375\n",
      "note_on channel=9 note=44 velocity=77 time=0.021875000000000002\n",
      "control_change channel=9 control=4 value=66 time=0.0015625\n",
      "control_change channel=9 control=4 value=82 time=0.0234375\n",
      "control_change channel=9 control=4 value=90 time=0.010937500000000001\n",
      "note_on channel=9 note=42 velocity=47 time=0\n",
      "note_on channel=9 note=44 velocity=0 time=0.065625\n",
      "note_on channel=9 note=42 velocity=0 time=0.034375\n",
      "note_on channel=9 note=38 velocity=51 time=0.0671875\n",
      "control_change channel=9 control=4 value=90 time=0.0171875\n",
      "note_on channel=9 note=42 velocity=64 time=0\n",
      "note_on channel=9 note=38 velocity=0 time=0.084375\n",
      "note_on channel=9 note=42 velocity=0 time=0.0171875\n",
      "note_on channel=9 note=36 velocity=28 time=0.06875\n",
      "control_change channel=9 control=4 value=90 time=0.0140625\n",
      "note_on channel=9 note=42 velocity=47 time=0\n",
      "note_on channel=9 note=36 velocity=0 time=0.08750000000000001\n",
      "note_on channel=9 note=42 velocity=0 time=0.0140625\n",
      "note_on channel=9 note=38 velocity=20 time=0.0734375\n",
      "control_change channel=9 control=4 value=90 time=0.003125\n",
      "note_on channel=9 note=42 velocity=44 time=0\n",
      "note_on channel=9 note=38 velocity=0 time=0.09843750000000001\n",
      "note_on channel=9 note=42 velocity=0 time=0.003125\n",
      "control_change channel=9 control=4 value=90 time=0.0921875\n",
      "note_on channel=9 note=42 velocity=43 time=0\n",
      "note_on channel=9 note=36 velocity=34 time=0.0015625\n",
      "note_on channel=9 note=42 velocity=0 time=0.1\n",
      "note_on channel=9 note=36 velocity=0 time=0.0015625\n",
      "control_change channel=9 control=4 value=90 time=0.07968750000000001\n",
      "note_on channel=9 note=42 velocity=34 time=0\n",
      "note_on channel=9 note=42 velocity=0 time=0.1015625\n",
      "note_on channel=9 note=37 velocity=69 time=0.09375\n",
      "control_change channel=9 control=4 value=90 time=0.003125\n",
      "note_on channel=9 note=42 velocity=41 time=0\n",
      "note_on channel=9 note=37 velocity=0 time=0.09843750000000001\n",
      "note_on channel=9 note=42 velocity=0 time=0.0015625\n",
      "control_change channel=9 control=4 value=90 time=0.0859375\n",
      "note_on channel=9 note=42 velocity=22 time=0\n",
      "control_change channel=9 control=4 value=87 time=0.0234375\n",
      "control_change channel=9 control=4 value=84 time=0.0234375\n",
      "control_change channel=9 control=4 value=81 time=0.0234375\n",
      "control_change channel=9 control=4 value=78 time=0.0234375\n",
      "note_on channel=9 note=42 velocity=0 time=0.0078125\n",
      "control_change channel=9 control=4 value=75 time=0.015625\n",
      "control_change channel=9 control=4 value=72 time=0.0234375\n",
      "control_change channel=9 control=4 value=69 time=0.0234375\n",
      "control_change channel=9 control=4 value=66 time=0.0234375\n",
      "note_on channel=9 note=40 velocity=91 time=0.0125\n",
      "control_change channel=9 control=4 value=64 time=0.0015625\n",
      "note_on channel=9 note=46 velocity=65 time=0\n",
      "control_change channel=9 control=4 value=58 time=0.0234375\n",
      "note_on channel=9 note=38 velocity=62 time=0\n",
      "control_change channel=9 control=4 value=51 time=0.0234375\n",
      "note_on channel=9 note=46 velocity=0 time=0.0125\n",
      "note_on channel=9 note=46 velocity=36 time=0\n",
      "control_change channel=9 control=4 value=44 time=0.010937500000000001\n",
      "control_change channel=9 control=4 value=41 time=0.009375000000000001\n",
      "note_on channel=9 note=40 velocity=0 time=0.018750000000000003\n",
      "note_on channel=9 note=46 velocity=0 time=0.003125\n",
      "control_change channel=9 control=4 value=36 time=0.0015625\n",
      "control_change channel=9 control=4 value=31 time=0.021875000000000002\n",
      "note_on channel=9 note=38 velocity=0 time=0\n",
      "control_change channel=9 control=4 value=30 time=0.003125\n",
      "control_change channel=9 control=4 value=25 time=0.046875\n",
      "control_change channel=9 control=4 value=20 time=0.035937500000000004\n",
      "control_change channel=9 control=4 value=21 time=0.09375\n",
      "note_on channel=9 note=36 velocity=45 time=0.06875\n",
      "control_change channel=9 control=4 value=22 time=0.025\n",
      "note_on channel=9 note=46 velocity=66 time=0\n",
      "note_on channel=9 note=36 velocity=0 time=0.0765625\n",
      "control_change channel=9 control=4 value=24 time=0.0171875\n",
      "note_on channel=9 note=46 velocity=0 time=0.0078125\n",
      "control_change channel=9 control=4 value=26 time=0.028125\n",
      "control_change channel=9 control=4 value=29 time=0.046875\n",
      "control_change channel=9 control=4 value=30 time=0.004687500000000001\n",
      "control_change channel=9 control=4 value=26 time=0.046875\n",
      "control_change channel=9 control=4 value=24 time=0.021875000000000002\n",
      "control_change channel=9 control=4 value=38 time=0.0234375\n",
      "control_change channel=9 control=4 value=52 time=0.0234375\n",
      "control_change channel=9 control=4 value=66 time=0.0234375\n",
      "note_on channel=9 note=44 velocity=30 time=0.0078125\n",
      "control_change channel=9 control=4 value=80 time=0.015625\n",
      "note_on channel=9 note=36 velocity=37 time=0\n",
      "note_on channel=9 note=42 velocity=41 time=0.0078125\n",
      "control_change channel=9 control=4 value=90 time=0.0078125\n",
      "note_on channel=9 note=44 velocity=0 time=0.06875\n",
      "note_on channel=9 note=36 velocity=0 time=0.0171875\n",
      "note_on channel=9 note=42 velocity=0 time=0.00625\n",
      "control_change channel=9 control=4 value=90 time=0.08125\n",
      "note_on channel=9 note=42 velocity=21 time=0\n",
      "note_on channel=9 note=42 velocity=0 time=0.1015625\n",
      "note_on channel=9 note=38 velocity=61 time=0.0859375\n",
      "control_change channel=9 control=4 value=90 time=0.009375000000000001\n",
      "note_on channel=9 note=42 velocity=63 time=0\n",
      "note_on channel=9 note=38 velocity=0 time=0.09062500000000001\n",
      "note_on channel=9 note=42 velocity=0 time=0.010937500000000001\n",
      "control_change channel=9 control=4 value=90 time=0.08750000000000001\n",
      "note_on channel=9 note=42 velocity=36 time=0\n",
      "note_on channel=9 note=36 velocity=39 time=0.003125\n",
      "note_on channel=9 note=42 velocity=0 time=0.09843750000000001\n",
      "note_on channel=9 note=36 velocity=0 time=0.003125\n",
      "control_change channel=9 control=4 value=90 time=0.065625\n",
      "note_on channel=9 note=42 velocity=38 time=0\n",
      "note_on channel=9 note=42 velocity=0 time=0.1015625\n",
      "note_on channel=9 note=38 velocity=59 time=0.0859375\n",
      "control_change channel=9 control=4 value=90 time=0.004687500000000001\n",
      "note_on channel=9 note=42 velocity=28 time=0\n",
      "note_on channel=9 note=38 velocity=0 time=0.09531250000000001\n",
      "note_on channel=9 note=42 velocity=0 time=0.00625\n",
      "control_change channel=9 control=4 value=90 time=0.0765625\n",
      "note_on channel=9 note=42 velocity=36 time=0\n",
      "note_on channel=9 note=42 velocity=0 time=0.1015625\n",
      "control_change channel=9 control=4 value=90 time=0.08125\n",
      "note_on channel=9 note=42 velocity=36 time=0\n",
      "note_on channel=9 note=42 velocity=0 time=0.1\n",
      "control_change channel=9 control=4 value=90 time=0.0765625\n",
      "note_on channel=9 note=42 velocity=36 time=0\n",
      "note_on channel=9 note=36 velocity=38 time=0.0078125\n",
      "note_on channel=9 note=42 velocity=0 time=0.09375\n",
      "note_on channel=9 note=36 velocity=0 time=0.00625\n",
      "control_change channel=9 control=4 value=90 time=0.060937500000000006\n",
      "note_on channel=9 note=42 velocity=27 time=0\n",
      "note_on channel=9 note=42 velocity=0 time=0.1015625\n",
      "note_on channel=9 note=38 velocity=56 time=0.09843750000000001\n",
      "control_change channel=9 control=4 value=90 time=0.0078125\n",
      "note_on channel=9 note=42 velocity=36 time=0\n",
      "note_on channel=9 note=38 velocity=0 time=0.09375\n",
      "note_on channel=9 note=42 velocity=0 time=0.0078125\n",
      "control_change channel=9 control=4 value=90 time=0.08281250000000001\n",
      "note_on channel=9 note=42 velocity=29 time=0\n",
      "note_on channel=9 note=36 velocity=41 time=0.00625\n",
      "note_on channel=9 note=42 velocity=0 time=0.09531250000000001\n",
      "note_on channel=9 note=36 velocity=0 time=0.00625\n",
      "control_change channel=9 control=4 value=90 time=0.0859375\n",
      "note_on channel=9 note=42 velocity=51 time=0\n",
      "note_on channel=9 note=42 velocity=0 time=0.1015625\n",
      "note_on channel=9 note=37 velocity=62 time=0.08125\n",
      "control_change channel=9 control=4 value=90 time=0.003125\n",
      "note_on channel=9 note=42 velocity=36 time=0\n",
      "note_on channel=9 note=37 velocity=0 time=0.096875\n",
      "note_on channel=9 note=42 velocity=0 time=0.003125\n",
      "control_change channel=9 control=4 value=90 time=0.09062500000000001\n",
      "note_on channel=9 note=42 velocity=24 time=0\n",
      "note_on channel=9 note=42 velocity=0 time=0.1015625\n",
      "control_change channel=9 control=4 value=90 time=0.08281250000000001\n",
      "note_on channel=9 note=42 velocity=34 time=0\n",
      "note_on channel=9 note=42 velocity=0 time=0.10312500000000001\n",
      "note_on channel=9 note=36 velocity=34 time=0.06406250000000001\n",
      "control_change channel=9 control=4 value=90 time=0.0171875\n",
      "note_on channel=9 note=42 velocity=52 time=0\n",
      "note_on channel=9 note=36 velocity=0 time=0.084375\n",
      "note_on channel=9 note=42 velocity=0 time=0.0171875\n",
      "control_change channel=9 control=4 value=90 time=0.06875\n",
      "note_on channel=9 note=42 velocity=27 time=0\n",
      "note_on channel=9 note=42 velocity=0 time=0.1\n",
      "note_on channel=9 note=37 velocity=63 time=0.096875\n",
      "control_change channel=9 control=4 value=90 time=0.00625\n",
      "note_on channel=9 note=42 velocity=40 time=0\n",
      "note_on channel=9 note=37 velocity=0 time=0.09375\n",
      "note_on channel=9 note=42 velocity=0 time=0.0078125\n",
      "note_on channel=9 note=36 velocity=41 time=0.0765625\n",
      "control_change channel=9 control=4 value=90 time=0.0125\n",
      "note_on channel=9 note=42 velocity=22 time=0\n",
      "note_on channel=9 note=36 velocity=0 time=0.08750000000000001\n",
      "note_on channel=9 note=42 velocity=0 time=0.0140625\n",
      "control_change channel=9 control=4 value=90 time=0.09062500000000001\n",
      "note_on channel=9 note=42 velocity=52 time=0\n",
      "note_on channel=9 note=42 velocity=0 time=0.1015625\n",
      "control_change channel=9 control=4 value=90 time=0.09062500000000001\n",
      "note_on channel=9 note=42 velocity=40 time=0\n",
      "note_on channel=9 note=38 velocity=61 time=0.0078125\n",
      "note_on channel=9 note=42 velocity=0 time=0.09375\n",
      "note_on channel=9 note=38 velocity=0 time=0.00625\n",
      "control_change channel=9 control=4 value=90 time=0.0765625\n",
      "note_on channel=9 note=42 velocity=38 time=0\n",
      "note_on channel=9 note=42 velocity=0 time=0.1015625\n",
      "note_on channel=9 note=38 velocity=20 time=0.06406250000000001\n",
      "control_change channel=9 control=4 value=90 time=0.004687500000000001\n",
      "note_on channel=9 note=42 velocity=28 time=0\n",
      "note_on channel=9 note=38 velocity=0 time=0.09531250000000001\n",
      "note_on channel=9 note=42 velocity=0 time=0.00625\n",
      "note_on channel=9 note=36 velocity=31 time=0.07500000000000001\n",
      "control_change channel=9 control=4 value=90 time=0.009375000000000001\n",
      "note_on channel=9 note=42 velocity=45 time=0\n",
      "note_on channel=9 note=36 velocity=0 time=0.09062500000000001\n",
      "note_on channel=9 note=42 velocity=0 time=0.010937500000000001\n",
      "note_on channel=9 note=38 velocity=24 time=0.08125\n",
      "control_change channel=9 control=4 value=90 time=0.0125\n",
      "note_on channel=9 note=42 velocity=21 time=0\n",
      "note_on channel=9 note=38 velocity=0 time=0.0890625\n",
      "note_on channel=9 note=42 velocity=0 time=0.0125\n",
      "note_on channel=9 note=37 velocity=60 time=0.0734375\n",
      "control_change channel=9 control=4 value=90 time=0.0140625\n",
      "note_on channel=9 note=42 velocity=29 time=0\n",
      "control_change channel=9 control=4 value=87 time=0.0234375\n",
      "control_change channel=9 control=4 value=83 time=0.0234375\n",
      "control_change channel=9 control=4 value=80 time=0.0234375\n",
      "note_on channel=9 note=37 velocity=0 time=0.015625\n",
      "control_change channel=9 control=4 value=76 time=0.0078125\n",
      "note_on channel=9 note=42 velocity=0 time=0.00625\n",
      "control_change channel=9 control=4 value=72 time=0.0171875\n",
      "control_change channel=9 control=4 value=69 time=0.0234375\n",
      "control_change channel=9 control=4 value=65 time=0.0234375\n",
      "control_change channel=9 control=4 value=62 time=0.0234375\n",
      "note_on channel=9 note=36 velocity=33 time=0.003125\n",
      "control_change channel=9 control=4 value=60 time=0.004687500000000001\n",
      "note_on channel=9 note=46 velocity=38 time=0\n",
      "control_change channel=9 control=4 value=33 time=0.0234375\n",
      "control_change channel=9 control=4 value=6 time=0.0234375\n",
      "control_change channel=9 control=4 value=0 time=0.004687500000000001\n",
      "control_change channel=9 control=4 value=25 time=0.0234375\n",
      "note_on channel=9 note=36 velocity=0 time=0.021875000000000002\n",
      "control_change channel=9 control=4 value=51 time=0.0015625\n",
      "note_on channel=9 note=46 velocity=0 time=0.003125\n",
      "control_change channel=9 control=4 value=77 time=0.0203125\n",
      "note_on channel=9 note=44 velocity=60 time=0.004687500000000001\n",
      "control_change channel=9 control=4 value=90 time=0.00625\n",
      "control_change channel=9 control=4 value=90 time=0.060937500000000006\n",
      "note_on channel=9 note=42 velocity=29 time=0\n",
      "note_on channel=9 note=44 velocity=0 time=0.034375\n",
      "note_on channel=9 note=42 velocity=0 time=0.0671875\n",
      "note_on channel=9 note=38 velocity=40 time=0.0546875\n",
      "control_change channel=9 control=4 value=90 time=0.0171875\n",
      "note_on channel=9 note=42 velocity=38 time=0\n",
      "note_on channel=9 note=38 velocity=0 time=0.08281250000000001\n",
      "note_on channel=9 note=42 velocity=0 time=0.018750000000000003\n",
      "note_on channel=9 note=36 velocity=34 time=0.046875\n",
      "control_change channel=9 control=4 value=90 time=0.040625\n",
      "note_on channel=9 note=42 velocity=27 time=0\n",
      "note_on channel=9 note=36 velocity=0 time=0.060937500000000006\n",
      "note_on channel=9 note=42 velocity=0 time=0.040625\n",
      "note_on channel=9 note=38 velocity=31 time=0.06406250000000001\n",
      "control_change channel=9 control=4 value=90 time=0.010937500000000001\n",
      "note_on channel=9 note=42 velocity=23 time=0\n",
      "note_on channel=9 note=38 velocity=0 time=0.026562500000000003\n",
      "note_on channel=9 note=38 velocity=22 time=0\n",
      "note_on channel=9 note=38 velocity=0 time=0.026562500000000003\n",
      "note_on channel=9 note=38 velocity=22 time=0\n",
      "note_on channel=9 note=38 velocity=0 time=0.025\n",
      "note_on channel=9 note=38 velocity=27 time=0\n",
      "note_on channel=9 note=38 velocity=0 time=0.010937500000000001\n",
      "note_on channel=9 note=42 velocity=0 time=0.0125\n",
      "note_on channel=9 note=38 velocity=12 time=0.026562500000000003\n",
      "note_on channel=9 note=38 velocity=0 time=0.025\n",
      "control_change channel=9 control=4 value=90 time=0.0203125\n",
      "note_on channel=9 note=42 velocity=26 time=0\n",
      "note_on channel=9 note=36 velocity=41 time=0.009375000000000001\n",
      "note_on channel=9 note=42 velocity=0 time=0.0921875\n",
      "note_on channel=9 note=36 velocity=0 time=0.009375000000000001\n",
      "control_change channel=9 control=4 value=90 time=0.0671875\n",
      "note_on channel=9 note=42 velocity=20 time=0\n",
      "note_on channel=9 note=42 velocity=0 time=0.1015625\n",
      "note_on channel=9 note=38 velocity=66 time=0.09843750000000001\n",
      "control_change channel=9 control=4 value=90 time=0.003125\n",
      "note_on channel=9 note=42 velocity=43 time=0\n",
      "note_on channel=9 note=38 velocity=0 time=0.09843750000000001\n",
      "note_on channel=9 note=42 velocity=0 time=0.003125\n",
      "control_change channel=9 control=4 value=90 time=0.084375\n",
      "note_on channel=9 note=42 velocity=29 time=0\n",
      "note_on channel=9 note=42 velocity=0 time=0.1015625\n",
      "control_change channel=9 control=4 value=90 time=0.0859375\n",
      "note_on channel=9 note=42 velocity=60 time=0\n",
      "note_on channel=9 note=42 velocity=0 time=0.1015625\n",
      "control_change channel=9 control=4 value=90 time=0.08125\n",
      "note_on channel=9 note=42 velocity=38 time=0\n",
      "note_on channel=9 note=38 velocity=49 time=0.003125\n",
      "note_on channel=9 note=42 velocity=0 time=0.096875\n",
      "note_on channel=9 note=38 velocity=0 time=0.003125\n",
      "control_change channel=9 control=4 value=90 time=0.0765625\n",
      "note_on channel=9 note=42 velocity=47 time=0\n",
      "note_on channel=9 note=42 velocity=0 time=0.1015625\n",
      "note_on channel=9 note=38 velocity=25 time=0.06406250000000001\n",
      "control_change channel=9 control=4 value=90 time=0.0234375\n",
      "note_on channel=9 note=42 velocity=20 time=0\n",
      "note_on channel=9 note=38 velocity=0 time=0.078125\n",
      "note_on channel=9 note=42 velocity=0 time=0.0234375\n",
      "note_on channel=9 note=38 velocity=13 time=0.0671875\n",
      "note_on channel=9 note=36 velocity=38 time=0.018750000000000003\n",
      "control_change channel=9 control=4 value=90 time=0.00625\n",
      "note_on channel=9 note=42 velocity=45 time=0\n",
      "note_on channel=9 note=38 velocity=0 time=0.0765625\n",
      "note_on channel=9 note=36 velocity=0 time=0.018750000000000003\n",
      "note_on channel=9 note=42 velocity=0 time=0.00625\n",
      "control_change channel=9 control=4 value=90 time=0.08750000000000001\n",
      "note_on channel=9 note=38 velocity=11 time=0\n",
      "note_on channel=9 note=42 velocity=20 time=0\n",
      "note_on channel=9 note=38 velocity=0 time=0.1015625\n",
      "note_on channel=9 note=42 velocity=0 time=0\n",
      "note_on channel=9 note=38 velocity=54 time=0.0625\n",
      "control_change channel=9 control=4 value=90 time=0.028125\n",
      "note_on channel=9 note=42 velocity=40 time=0\n",
      "control_change channel=9 control=4 value=87 time=0.046875\n",
      "note_on channel=9 note=38 velocity=0 time=0.026562500000000003\n",
      "control_change channel=9 control=4 value=83 time=0.0203125\n",
      "note_on channel=9 note=42 velocity=0 time=0.0078125\n",
      "control_change channel=9 control=4 value=82 time=0.004687500000000001\n",
      "control_change channel=9 control=4 value=67 time=0.0234375\n",
      "control_change channel=9 control=4 value=51 time=0.0234375\n",
      "control_change channel=9 control=4 value=48 time=0.004687500000000001\n",
      "note_on channel=9 note=36 velocity=33 time=0.015625\n",
      "control_change channel=9 control=4 value=26 time=0.0078125\n",
      "note_on channel=9 note=46 velocity=49 time=0.004687500000000001\n",
      "control_change channel=9 control=4 value=3 time=0.018750000000000003\n",
      "control_change channel=9 control=4 value=0 time=0.003125\n",
      "control_change channel=9 control=4 value=13 time=0.0234375\n",
      "control_change channel=9 control=4 value=27 time=0.0234375\n",
      "note_on channel=9 note=36 velocity=0 time=0.0203125\n",
      "control_change channel=9 control=4 value=40 time=0.003125\n",
      "note_on channel=9 note=46 velocity=0 time=0.009375000000000001\n",
      "control_change channel=9 control=4 value=54 time=0.0140625\n",
      "control_change channel=9 control=4 value=67 time=0.0234375\n",
      "control_change channel=9 control=4 value=68 time=0\n",
      "note_on channel=9 note=44 velocity=72 time=0.003125\n",
      "control_change channel=9 control=4 value=78 time=0.0203125\n",
      "control_change channel=9 control=4 value=89 time=0.0234375\n",
      "control_change channel=9 control=4 value=90 time=0\n",
      "note_on channel=9 note=42 velocity=29 time=0\n",
      "note_on channel=9 note=44 velocity=0 time=0.05625\n",
      "note_on channel=9 note=42 velocity=0 time=0.046875\n",
      "note_on channel=9 note=38 velocity=51 time=0.07187500000000001\n",
      "control_change channel=9 control=4 value=90 time=0.010937500000000001\n",
      "note_on channel=9 note=42 velocity=51 time=0\n",
      "note_on channel=9 note=38 velocity=0 time=0.09062500000000001\n",
      "note_on channel=9 note=42 velocity=0 time=0.010937500000000001\n",
      "note_on channel=9 note=36 velocity=37 time=0.0484375\n",
      "control_change channel=9 control=4 value=90 time=0.035937500000000004\n",
      "note_on channel=9 note=42 velocity=40 time=0\n",
      "note_on channel=9 note=36 velocity=0 time=0.065625\n",
      "note_on channel=9 note=42 velocity=0 time=0.035937500000000004\n",
      "note_on channel=9 note=38 velocity=10 time=0.0703125\n",
      "control_change channel=9 control=4 value=90 time=0.0078125\n",
      "note_on channel=9 note=42 velocity=27 time=0\n",
      "note_on channel=9 note=38 velocity=0 time=0.0921875\n",
      "note_on channel=9 note=42 velocity=0 time=0.009375000000000001\n",
      "note_on channel=9 note=36 velocity=39 time=0.07968750000000001\n",
      "control_change channel=9 control=4 value=90 time=0.0171875\n",
      "note_on channel=9 note=42 velocity=33 time=0\n",
      "note_on channel=9 note=36 velocity=0 time=0.08281250000000001\n",
      "note_on channel=9 note=42 velocity=0 time=0.018750000000000003\n",
      "note_on channel=9 note=38 velocity=13 time=0.078125\n",
      "control_change channel=9 control=4 value=90 time=0.009375000000000001\n",
      "note_on channel=9 note=42 velocity=21 time=0\n",
      "note_on channel=9 note=38 velocity=0 time=0.0921875\n",
      "note_on channel=9 note=42 velocity=0 time=0.009375000000000001\n",
      "control_change channel=9 control=4 value=90 time=0.07968750000000001\n",
      "note_on channel=9 note=42 velocity=34 time=0\n",
      "note_on channel=9 note=37 velocity=64 time=0.003125\n",
      "control_change channel=9 control=4 value=87 time=0.0203125\n",
      "control_change channel=9 control=4 value=83 time=0.0234375\n",
      "control_change channel=9 control=4 value=79 time=0.0234375\n",
      "control_change channel=9 control=4 value=75 time=0.0234375\n",
      "note_on channel=9 note=42 velocity=0 time=0.00625\n",
      "note_on channel=9 note=37 velocity=0 time=0.003125\n",
      "control_change channel=9 control=4 value=71 time=0.0140625\n",
      "control_change channel=9 control=4 value=67 time=0.0234375\n",
      "control_change channel=9 control=4 value=63 time=0.0234375\n",
      "control_change channel=9 control=4 value=59 time=0.0234375\n",
      "note_on channel=9 note=46 velocity=51 time=0.0140625\n",
      "control_change channel=9 control=4 value=55 time=0.009375000000000001\n",
      "note_on channel=9 note=36 velocity=41 time=0.00625\n",
      "control_change channel=9 control=4 value=52 time=0.010937500000000001\n",
      "control_change channel=9 control=4 value=27 time=0.0234375\n",
      "control_change channel=9 control=4 value=2 time=0.0234375\n",
      "control_change channel=9 control=4 value=0 time=0.0015625\n",
      "control_change channel=9 control=4 value=16 time=0.0234375\n",
      "note_on channel=9 note=46 velocity=0 time=0.003125\n",
      "note_on channel=9 note=36 velocity=0 time=0.0140625\n",
      "control_change channel=9 control=4 value=33 time=0.00625\n",
      "control_change channel=9 control=4 value=50 time=0.0234375\n",
      "control_change channel=9 control=4 value=67 time=0.0234375\n",
      "note_on channel=9 note=44 velocity=57 time=0\n",
      "note_on channel=9 note=42 velocity=23 time=0.018750000000000003\n",
      "control_change channel=9 control=4 value=84 time=0.004687500000000001\n",
      "control_change channel=9 control=4 value=90 time=0.0078125\n",
      "note_on channel=9 note=44 velocity=0 time=0.0703125\n",
      "note_on channel=9 note=42 velocity=0 time=0.0171875\n",
      "note_on channel=9 note=38 velocity=53 time=0.0671875\n",
      "control_change channel=9 control=4 value=90 time=0.0125\n",
      "note_on channel=9 note=42 velocity=60 time=0\n",
      "note_on channel=9 note=38 velocity=0 time=0.08750000000000001\n",
      "note_on channel=9 note=42 velocity=0 time=0.0125\n",
      "control_change channel=9 control=4 value=90 time=0.07500000000000001\n",
      "note_on channel=9 note=42 velocity=40 time=0\n",
      "note_on channel=9 note=42 velocity=0 time=0.1015625\n",
      "control_change channel=9 control=4 value=90 time=0.1078125\n",
      "note_on channel=9 note=42 velocity=39 time=0\n",
      "note_on channel=9 note=42 velocity=0 time=0.10312500000000001\n",
      "note_on channel=9 note=38 velocity=17 time=0.08281250000000001\n",
      "control_change channel=9 control=4 value=89 time=0.08125\n",
      "note_on channel=9 note=38 velocity=0 time=0.018750000000000003\n",
      "note_on channel=9 note=38 velocity=55 time=0.059375000000000004\n",
      "note_on channel=9 note=38 velocity=0 time=0.1015625\n",
      "control_change channel=9 control=4 value=88 time=0.08750000000000001\n",
      "note_on channel=9 note=37 velocity=70 time=0.00625\n",
      "note_on channel=9 note=37 velocity=0 time=0.1\n",
      "note_on channel=9 note=36 velocity=41 time=0.0890625\n",
      "control_change channel=9 control=4 value=87 time=0.07187500000000001\n",
      "note_on channel=9 note=36 velocity=0 time=0.029687500000000002\n",
      "note_on channel=9 note=43 velocity=94 time=0.11093750000000001\n",
      "note_on channel=9 note=43 velocity=0 time=0.1\n",
      "control_change channel=9 control=4 value=86 time=0.026562500000000003\n",
      "control_change channel=9 control=4 value=85 time=0.26875\n",
      "MetaMessage('end_of_track', time=0.0015625)\n"
     ]
    }
   ],
   "source": [
    "import pandas as pd\n",
    "import mido\n",
    "groove = pd.read_csv(\"groove/info.csv\")\n",
    "\n",
    "filtered_groove = groove[(groove['time_signature'] == '4-4') & (groove['beat_type'] == 'beat') & (groove['style'] == 'funk')]\n",
    "\n",
    "foo = filtered_groove[\"midi_filename\"].iloc[0]\n",
    "\n",
    "midi = mido.MidiFile(f\"groove/{foo}\")\n",
    "\n",
    "for m in midi:\n",
    "    print(m)"
   ]
  }
 ],
 "metadata": {
  "kernelspec": {
   "display_name": ".tolga",
   "language": "python",
   "name": "python3"
  },
  "language_info": {
   "codemirror_mode": {
    "name": "ipython",
    "version": 3
   },
   "file_extension": ".py",
   "mimetype": "text/x-python",
   "name": "python",
   "nbconvert_exporter": "python",
   "pygments_lexer": "ipython3",
   "version": "3.11.2"
  }
 },
 "nbformat": 4,
 "nbformat_minor": 2
}
